<svg width="240" height="240" viewBox="0 0 240 240" fill="none" xmlns="http://www.w3.org/2000/svg">
<ellipse cx="73.7635" cy="45.6636" rx="73.7635" ry="45.6636" transform="matrix(-0.509553 -0.860029 0.860772 -0.509684 115.299 203.139)" fill="#7FAF25"/>
<ellipse cx="29.2194" cy="58.8846" rx="29.2194" ry="58.8846" transform="matrix(-0.998989 -0.0504077 0.0509273 -0.998442 180.496 168.717)" fill="white"/>
<ellipse cx="29.2194" cy="58.8845" rx="29.2194" ry="58.8845" transform="matrix(0.645789 -0.76377 0.763891 0.645044 20.5495 128.717)" fill="white"/>
<ellipse cx="53.9878" cy="32.0369" rx="53.9878" ry="32.0369" transform="matrix(-0.453649 -0.890768 0.891502 -0.453827 128.509 222.455)" fill="#7FAF25"/>
<ellipse cx="27.2504" cy="29.5825" rx="27.2504" ry="29.5825" transform="matrix(-0.910726 -0.413021 0.413705 -0.910407 162.939 224.743)" fill="white"/>
<ellipse cx="16.2334" cy="19.3424" rx="16.2334" ry="19.3424" transform="matrix(-0.910726 -0.413021 0.413705 -0.910407 180.201 203.138)" fill="#FD2927"/>
<ellipse cx="16.2334" cy="19.3424" rx="16.2334" ry="19.3424" transform="matrix(0.373235 -0.927697 0.928046 0.372565 108.315 207.468)" fill="#FD2927"/>
</svg>
