<svg width="317" height="347" viewBox="0 0 317 347" fill="none" xmlns="http://www.w3.org/2000/svg">
<path d="M167.365 233.997C150.047 245.017 125.802 265.276 167.365 273.912C208.927 282.548 159.318 330.702 142 341.497" stroke="#7C9733" stroke-width="12.3331"/>
<path d="M178.543 99.7577L205.648 142.445L192.258 148.428L178.543 99.7577Z" fill="#D9D9D9"/>
<path d="M196.673 83.5915L220.172 128.366L206.335 133.226L196.673 83.5915Z" fill="#D9D9D9"/>
<path d="M223.268 68.6912L240.375 116.275L226.001 119.183L223.268 68.6912Z" fill="#D9D9D9"/>
<path d="M249.307 52.9433L256.374 103.013L241.709 102.935L249.307 52.9433Z" fill="#D9D9D9"/>
<path d="M104.856 119.391L113.734 169.172L99.0751 169.626L104.856 119.391Z" fill="#D9D9D9"/>
<path d="M85.6067 106.386L94.4847 156.167L79.8261 156.621L85.6067 106.386Z" fill="#D9D9D9"/>
<path d="M68.4407 91.8199L77.3187 141.601L62.6601 142.054L68.4407 91.8199Z" fill="#D9D9D9"/>
<path d="M46.5911 75.694L55.4691 125.475L40.8105 125.929L46.5911 75.694Z" fill="#D9D9D9"/>
<path d="M21.6214 63.7281L30.4994 113.509L15.8408 113.963L21.6214 63.7281Z" fill="#D9D9D9"/>
<path d="M150.755 201.064C154.786 178.42 229.568 100.376 269.104 84.2754C269.104 167.373 214.298 218.27 186.895 233.332C28.8419 238.941 15.499 153.724 1.52734 100.376C43.8508 100.376 115.043 172.499 150.755 201.064Z" fill="#FD2927"/>
<path d="M150.755 229.416C211.361 229.416 274.047 143.58 267.817 81.1543C280.062 143.959 251.227 267.989 129.963 252.584C32.9512 240.26 3.69502 143.169 1.19336 96.1642C10.5572 168.811 75.7058 229.416 150.755 229.416Z" fill="#7C9733"/>
<mask id="mask0_184_113" style="mask-type:luminance" maskUnits="userSpaceOnUse" x="76" y="65" width="106" height="148">
<path d="M115.633 68.4079C115.633 68.4079 101.125 75.9007 119.769 93.9763C119.769 93.9763 127.086 100.58 129.456 101.435L157.986 119.017C157.986 119.017 203.399 145.096 169.077 184.415L167.899 185.758C167.899 185.758 149.338 239.272 107.866 195.022C107.866 195.022 100.051 172.429 110.388 155.469C110.388 155.469 72.5894 119.836 76.6376 92.0948C76.6376 92.0948 84.9383 55.3865 118.222 68.3959L115.633 68.4079Z" fill="white"/>
</mask>
<g mask="url(#mask0_184_113)">
<rect x="351.077" y="130.636" width="244.95" height="292.503" transform="rotate(117.774 351.077 130.636)" fill="#830705"/>
</g>
<mask id="mask1_184_113" style="mask-type:luminance" maskUnits="userSpaceOnUse" x="89" y="67" width="92" height="136">
<path d="M114.835 68.9812C114.835 68.9812 100.96 81.6096 126.422 97.4646C126.422 97.4646 143.201 105.467 147.578 107.387C147.578 107.387 198.265 121.708 174.403 169.87C174.403 169.87 173.364 149.699 152.722 134.575C152.722 134.575 99.6112 104.214 102.889 97.6713L103.832 95.1164C103.832 95.1164 97.5658 99.027 133.759 126.958C133.759 126.958 175.6 149.714 170.405 177.311C170.405 177.311 168.075 199.952 153.471 202.521C153.471 202.521 157.227 177.689 107.288 141.133C107.288 141.133 69.3012 105.31 104.695 71.5762C104.695 71.5762 109.599 67.7195 117.448 67.9726L114.833 68.976L114.835 68.9812Z" fill="white"/>
</mask>
<g mask="url(#mask1_184_113)">
<rect width="255.614" height="268.935" transform="matrix(-0.349298 0.937012 -0.943618 -0.331037 340.889 87.665)" fill="#C50705"/>
</g>
<path d="M8.30245 75.8065L25.3145 123.425L10.9343 126.304L8.30245 75.8065Z" fill="#D9D9D9"/>
<path d="M32.0098 97.8748L35.8117 148.298L21.1822 147.268L32.0098 97.8748Z" fill="#D9D9D9"/>
<path d="M43.9756 118.683L47.7775 169.106L33.148 168.077L43.9756 118.683Z" fill="#D9D9D9"/>
<path d="M60.6221 138.437L64.424 188.86L49.7945 187.831L60.6221 138.437Z" fill="#D9D9D9"/>
<path d="M84.0323 153.004L87.8341 203.427L73.2047 202.397L84.0323 153.004Z" fill="#D9D9D9"/>
<path d="M261.219 66.8674L264.435 117.331L249.818 116.131L261.219 66.8674Z" fill="#D9D9D9"/>
<path d="M246.465 92.1549L255.343 141.935L240.685 142.389L246.465 92.1549Z" fill="#D9D9D9"/>
<path d="M233.869 114.71L242.747 164.49L228.089 164.944L233.869 114.71Z" fill="#D9D9D9"/>
<path d="M219.823 136.024L228.701 185.805L214.042 186.259L219.823 136.024Z" fill="#D9D9D9"/>
<path d="M204.217 153.192L213.095 202.973L198.436 203.427L204.217 153.192Z" fill="#D9D9D9"/>
<path d="M184.969 164.116L193.847 213.896L179.188 214.35L184.969 164.116Z" fill="#D9D9D9"/>
<path d="M141.039 213.218C126.961 207.587 120.751 183.89 118.887 173.47L105.757 162.554L99.8414 163.533L93.6308 167.88L91.9746 195L131.309 216.944L141.039 213.218Z" fill="#FD2927"/>
<path d="M136.69 205.351L143.936 220.049" stroke="#830705" stroke-width="2.07021"/>
<path d="M119.094 162.912L101.595 146.167L96.3926 148.508L100.034 157.352L117.645 173.056C121.785 173.056 122.282 171.938 121.785 169.95C121.288 167.963 120.267 164.43 119.094 162.912Z" fill="black"/>
<path d="M100.033 157.612L100.033 144.606L107.836 152.15L112.258 168.276L107.316 163.854L100.033 157.612Z" fill="#D9D9D9"/>
<path d="M105.36 164.969L109.162 215.391L94.5328 214.362L105.36 164.969Z" fill="#D9D9D9"/>
</svg>
