<svg width="794" height="644" viewBox="0 0 794 644" fill="none" xmlns="http://www.w3.org/2000/svg">
<g clip-path="url(#clip0_53_1173)">
<rect width="651.857" height="819.204" transform="translate(0 651.856) rotate(-89.9016)" fill="black"/>
<path d="M440.583 138.17L421.061 229.721L397.106 218.603L440.583 138.17Z" fill="white"/>
<path d="M491.753 617.928L505.455 533.174L536.028 547.66L491.753 617.928Z" fill="white"/>
<path d="M131.987 377.13L150.151 282.009L174.513 292.424L131.987 377.13Z" fill="#C50705"/>
<path d="M95.6028 297.42L135.992 236.57L156.86 265.599L95.6028 297.42Z" fill="white"/>
<path d="M141.082 103.881L505.584 374.123C537.527 441.599 617.277 469.106 674.498 507.976C797.004 591.257 917.212 695.117 1028.87 796.081C1069.99 833.269 1112.46 869.676 1149.75 911.684L1135.98 919.78C993.503 825.029 848.552 729.985 714.225 620.33C661.094 576.972 611.994 527.276 559.342 483.862C506.28 440.083 482.584 420.075 419.483 466.638C374.382 418.737 325.578 375.341 280.255 327.613C226.059 270.654 151.043 200.302 137.537 114.001C136.686 108.554 132.061 108.718 141.082 103.881Z" fill="white"/>
<path d="M659.149 602.893L614.102 546.382L643.483 529.024L659.149 602.893Z" fill="#C50705"/>
<path d="M776.631 446.639L769.667 522.189L738.526 509.328L776.631 446.639Z" fill="#C50705"/>
<path d="M403.429 343.608L432.131 274.861L457.758 298.57L403.429 343.608Z" fill="#C50705"/>
<path d="M261.186 83.7114L180.594 63.732L192.8 31.7204L261.186 83.7114Z" fill="#C50705"/>
<path d="M327.042 349.99L288.171 270.732L319.895 259.794L327.042 349.99Z" fill="#C50705"/>
<path d="M538.488 429.553L490.394 496.107L469.843 466.793L538.488 429.553Z" fill="#C50705"/>
<path d="M826.333 657.292C832.686 584.796 747.689 457.517 641.983 526.638C518.656 607.282 458.862 477.67 465.075 392.68C472.912 285.469 424.929 165.606 271.95 278.024C118.97 390.442 80.4946 35.6053 249.577 -24.7452" stroke="#7FAF25" stroke-width="18.4071"/>
<path d="M128.438 92.6041L167.91 124.367L145.926 143.564L128.438 92.6041Z" fill="white"/>
<path d="M151.161 160.855L145.958 143.589L145.95 140.879L149.936 132.092L156.252 137.484L151.161 160.855Z" fill="#D9D9D9"/>
<path d="M155.979 171.77C154.7 170.837 152.304 163.898 151.114 160.386L150.529 158.321L149.469 151.447L148.757 145.042L154.677 127.357L161.345 129.362C160.136 144.033 157.259 172.703 155.979 171.77Z" fill="white"/>
<path d="M156.839 173.445L155.577 171.486L158.157 171.005L156.839 173.445Z" fill="#D9D9D9"/>
<path d="M483.992 357.866L445.138 329.266L439.341 336.26L437.466 359.141L450.698 446.663C456.732 441.063 476.982 440.023 486.354 440.204L483.992 357.866Z" fill="white"/>
<path d="M451.473 447.112L448.699 445.903L451.056 441.508L472.931 440.516C473.325 440.48 473.69 440.463 474.021 440.466L472.931 440.516C467.517 441.008 456.583 445.027 451.473 447.112Z" fill="#D9D9D9"/>
</g>
<defs>
<clipPath id="clip0_53_1173">
<rect width="651.857" height="819.204" fill="white" transform="translate(0 651.856) rotate(-89.9016)"/>
</clipPath>
</defs>
</svg>
