<svg width="368" height="369" viewBox="0 0 368 369" fill="none" xmlns="http://www.w3.org/2000/svg">
<path d="M134.916 4.74525L156.214 39.1848L143.529 44.3114L134.916 4.74525Z" fill="white"/>
<path d="M241.692 12.9215L236.751 49.1665L219.312 41.8567L241.692 12.9215Z" fill="white"/>
<path d="M207.855 9.73924L218.093 44.1899L205.063 45.5702L207.855 9.73924Z" fill="white"/>
<path d="M165.522 4.37401L175.759 38.8247L162.729 40.2049L165.522 4.37401Z" fill="white"/>
<path d="M185.565 0.495168L194.415 35.3281L181.341 36.1856L185.565 0.495168Z" fill="black"/>
<path d="M63.7146 55.9836L95.3826 74.2937L82.0087 87.6609L63.7146 55.9836Z" fill="white"/>
<path d="M85.5624 37.0937L115.395 58.2632L100.838 70.3317L85.5624 37.0937Z" fill="black"/>
<path d="M113.235 23.6723L136.685 51.7472L119.533 59.7064L113.235 23.6723Z" fill="white"/>
<path d="M266.609 25.4092L259.156 61.2222L242.269 52.7158L266.609 25.4092Z" fill="white"/>
<path d="M290.361 40.8938L277.339 75.078L262.009 64.0086L290.361 40.8938Z" fill="white"/>
<path d="M337.406 107.244L309.266 130.616L301.354 113.442L337.406 107.244Z" fill="white"/>
<path d="M366.893 196.243L323.912 202.49L324.407 187.226L366.893 196.243Z" fill="white"/>
<path d="M356.261 137.394L323.482 153.633L319.753 135.096L356.261 137.394Z" fill="black"/>
<path d="M314.964 57.3643L286.56 88.9909L277.249 76.9764L314.964 57.3643Z" fill="black"/>
<path d="M329.632 82.3105L303.637 107.128L296.468 96.1606L329.632 82.3105Z" fill="white"/>
<path d="M366.421 165.68L331.566 174.442L330.742 161.365L366.421 165.68Z" fill="white"/>
<path d="M364.803 221.586L328.87 220.928L331.494 208.091L364.803 221.586Z" fill="white"/>
<path d="M356.538 247.059L321.451 239.278L326.571 227.218L356.538 247.059Z" fill="black"/>
<path d="M357.298 278.612L315.493 262.831L321.867 251.384L357.298 278.612Z" fill="white"/>
<path d="M328.211 287.677L295.507 272.773L303.023 262.041L328.211 287.677Z" fill="white"/>
<path d="M319.894 311.056L290.575 290.503L298.634 282.245L319.894 311.056Z" fill="white"/>
<path d="M45.5319 74.7428L78.9792 89.5549L67.1142 104.278L45.5319 74.7428Z" fill="white"/>
<path d="M16.8862 95.2454L60.0668 112.903L51.8253 126.158L16.8862 95.2454Z" fill="black"/>
<path d="M18.2828 139.207L53.9485 144.97L48.5144 158.988L18.2828 139.207Z" fill="white"/>
<path d="M11.6249 167.763L47.2519 163.637L46.5602 175.877L11.6249 167.763Z" fill="white"/>
<path d="M5.84098 192.324L41.3004 185.353L41.0464 200.482L5.84098 192.324Z" fill="white"/>
<path d="M16.1086 220.643L46.358 200.64L52.0629 215.907L16.1086 220.643Z" fill="white"/>
<path d="M2.66093 255.241L42.5598 233.305L47.1677 245.636L2.66093 255.241Z" fill="black"/>
<path d="M32.0053 271.558L60.0412 248.555L67.2834 263.156L32.0053 271.558Z" fill="white"/>
<path d="M52.1755 295.392L75.8838 267.95L85.507 281.104L52.1755 295.392Z" fill="white"/>
<path d="M71.3768 324.663L86.0095 291.481L99.0628 301.24L71.3768 324.663Z" fill="black"/>
<path d="M93.9763 341.694L105.839 307.424L119.649 316.08L93.9763 341.694Z" fill="white"/>
<path d="M119.256 353.431L126.767 317.952L141.545 324.824L119.256 353.431Z" fill="white"/>
<path d="M139.883 361.246L143.373 325.15L158.828 330.324L139.883 361.246Z" fill="white"/>
<path d="M166.831 367.375L162.177 331.409L178.397 333.004L166.831 367.375Z" fill="black"/>
<path d="M193.13 367.11L183.407 332.173L199.688 331.443L193.13 367.11Z" fill="white"/>
<path d="M222.05 366.152L207.002 333.156L222.972 329.899L222.05 366.152Z" fill="white"/>
<path d="M250.743 357.021L232.088 325.922L247.591 320.893L250.743 357.021Z" fill="white"/>
<path d="M282.033 342.757L254.698 318.926L267.895 309.362L282.033 342.757Z" fill="white"/>
<path d="M295.787 316.551L266.205 295.573L278.379 284.737L295.787 316.551Z" fill="black"/>
<path d="M131.724 260.289C134.362 267.069 142.287 277.839 152.881 266.68C163.475 255.52 172.884 264.644 176.264 270.6C180.479 275.951 191.39 282.37 201.31 265.241C211.23 248.113 222.219 258.734 226.474 266.186" stroke="#A30200" stroke-width="6.44675"/>
<path d="M143.99 125.908C144.625 130.294 148.175 137.343 157.298 130.442C166.421 123.541 171.263 129.569 172.544 133.446C174.497 136.953 180.825 141.286 190.511 130.558C200.198 119.83 205.86 126.849 207.48 131.699" stroke="#A30200" stroke-width="6.44675"/>
<ellipse cx="185.713" cy="186.959" rx="152.036" ry="156.334" transform="rotate(-0.415182 185.713 186.959)" fill="#C50705"/>
<ellipse cx="185.714" cy="186.959" rx="139.142" ry="142.366" transform="rotate(-0.415182 185.714 186.959)" fill="black"/>
<path d="M232.917 115.385C230.451 109.047 223.042 98.9787 213.139 109.411C203.236 119.843 194.44 111.314 191.28 105.746C187.339 100.744 177.14 94.7435 167.867 110.755C158.594 126.767 148.32 116.838 144.343 109.872" stroke="#7FAF25" stroke-width="6.02654"/>
<path d="M164.329 272.614C164.964 277 168.514 284.049 177.637 277.148C186.76 270.247 191.602 276.275 192.883 280.152C194.836 283.659 201.164 287.992 210.85 277.264C220.537 266.536 226.199 273.555 227.819 278.406" stroke="#7FAF25" stroke-width="6.44675"/>
<path d="M225.356 237.052C225.918 237.434 226.186 238.34 226.753 238.655C227.869 239.274 229.745 238.475 230.904 238.456C232.905 238.427 232.007 242.177 229.92 242.909C228.404 243.443 226.823 240.138 224.562 242.512C221.812 245.4 225.42 246.376 224.985 248.309C224.794 249.16 223.953 249.952 223.346 250.227C220.526 251.502 221.268 246.181 219.818 244.88C216.184 242.798 212.612 241.145 208.368 240.393C205.873 239.951 200.543 240.135 198.646 239.016C196.749 237.896 198.565 233.938 199.55 231.453C202.231 224.684 203.874 220.691 205.933 213.724C206.836 210.67 208.115 209.489 205.169 210.051C200.625 210.92 197.03 212.085 192.494 212.19C190.553 212.233 188.018 211.651 186.141 211.964C185.078 212.14 183.88 212.789 182.658 212.966C181.797 213.09 177.236 212.971 176.93 213.183C176.729 213.322 176.553 213.577 176.377 213.778C176.206 214.527 181.194 217.97 181.86 218.761C183.872 221.157 182.39 225.024 178.98 226.321C176.829 227.14 172.302 225.776 170.092 225.541C165.722 225.069 156.983 224.244 152.24 226.506C150.94 227.127 147.201 230.09 147.865 226.541C148.342 223.994 150.906 224.429 152.28 223.602C155.661 221.561 153.959 218.971 152.241 218.314C151.701 218.108 151.061 218.513 150.71 217.867C149.801 216.199 152.101 213.294 153.114 214.392C153.398 214.701 153.312 215.381 153.512 215.84C154.004 216.964 155.555 218.173 156.501 218.72C158.646 219.961 158.752 217.943 157.94 216.028C157.474 214.931 155.841 213.896 157.626 211.945C160.323 208.994 159.534 215.175 159.97 216.238C160.124 216.612 160.984 217.75 161.25 218.004C162.142 218.849 164.084 218.594 165.388 218.413C165.792 218.052 165.527 218.004 165.415 217.757C165.071 217.005 164.716 216.14 164.365 215.432C163.706 214.105 161.379 211.065 161.738 209.218C162.676 204.368 167.39 205.68 169.455 205.48C171.157 205.314 173.21 205.05 174.947 204.686C175.961 204.472 179.9 203.656 180.564 202.569C181.289 200.721 180.019 199.697 179.561 198.58C178.277 195.45 176.99 192.201 176.953 188.078C176.936 186.34 178.046 181.322 175.761 182.966C173.362 184.693 170.853 187.473 168.561 189.306C163.097 193.673 163.555 181.797 158.94 183.641C158.076 183.986 155.135 185.578 154.273 186.172C153.02 187.037 149.896 190.399 149.419 188.102C148.917 185.683 151.726 184.809 152.884 183.712C154.503 182.181 155.884 180.19 155.33 178.174C154.737 176.014 152.7 177.071 152.073 175.981C151.447 174.891 152.769 172.298 153.922 172.453C154.577 172.54 155.671 174.023 156.504 174.438C157.111 174.74 158.684 175.189 159.466 174.692C161.529 173.378 160.64 171.985 160.816 170.297C161.041 168.155 162.576 166.217 163.546 167.76C164.554 169.367 162.102 173.095 163.969 175.097C165.235 176.454 167.533 172.494 168.348 173.338C169.474 174.502 167.383 175.601 166.695 176.372C166.008 177.144 164.88 179.455 165.24 180.219C165.505 180.783 168.766 182.879 169.435 183.155C169.711 183.269 170.151 183.443 170.505 183.232C171.191 182.825 174.412 178.806 175.081 177.799C175.532 177.119 175.457 176.742 175.191 176.303C174.591 175.296 173.161 174.129 172.35 173.246C172.072 172.943 171.935 172.388 171.646 172.058C170.715 170.998 169.342 171.331 169.14 168.93C168.966 166.861 170.48 165.481 171.078 163.707C171.531 162.361 171.569 159.979 171.865 158.485C172.776 153.884 174.214 151.602 177.818 150.701C178.94 150.421 182.142 150.677 182.734 150.323C183.409 149.917 184.418 148.531 185.431 147.957C188.608 146.154 188.485 151.828 189.187 154.013C189.654 155.47 190.527 156.524 191.094 157.859C192.407 160.959 191.855 163.672 194.959 164.975C196.608 165.666 197.397 164.896 199.209 163.239C200.248 162.289 201.924 160.775 202.871 159.784C203.236 159.401 203.821 158.795 204.047 158.302C204.555 155.604 202.033 157.328 201.395 156.062C200.644 154.575 202.958 152.116 203.799 153.302C203.969 153.542 203.936 153.979 204.205 154.252C204.553 154.604 206.167 154.719 206.734 154.366C207.626 153.81 208.973 150.272 209.184 149.154C209.546 147.243 208.682 146.066 208.854 144.752C209.137 142.598 212.058 140.849 211.724 144.339C211.607 145.569 209.362 153.067 212.237 150.204C214.175 148.276 216.192 145.929 217.903 143.614C218.321 143.049 218.505 142.395 219.038 141.801C220.902 139.72 222.022 141.898 220.995 144.154C219.771 146.844 216.123 147.753 215.867 151.322C215.593 155.157 217.709 153.893 219.352 154.643C220.754 155.285 220.226 158.351 218.347 159.179C217.318 159.632 217.119 158.591 216.508 158.212C214.781 157.141 211.916 156.632 209.469 158.356C207.91 159.455 207.218 161.88 206.049 163.448C204.88 165.015 203.353 166.331 202.05 167.816C201.059 168.944 200.437 170.331 199.141 171.191C197.52 172.27 198.013 169.768 197.095 169.518C196.961 169.483 194.085 170.428 193.963 170.62C193.796 171.971 194.346 173.002 194.504 174.175C194.916 177.232 194.51 180.964 194.012 184.463C193.356 189.078 192.021 193.59 190.615 198.302C190.692 199.762 193.189 200.42 194.213 200.595C196.583 201.002 199.514 200.695 202.017 200.816C203.615 200.894 205.107 201.363 206.721 201.395C208.715 201.432 212.656 199.975 213.083 202.646C213.633 206.079 210.898 214.761 209.395 218.837C208.228 222.003 203.569 231.693 204.38 233.907C204.818 235.106 207.21 234.454 208.21 234.558C209.676 234.713 212.15 236.816 213.85 235.823C216.218 234.442 213.733 231.535 213.521 230.438C213.282 229.195 215.197 226.736 216.125 227.735C216.884 228.55 216.68 231.549 218.167 232.156C220.202 232.983 221.813 226.642 222.872 225.326C223.932 224.01 225.469 224.51 224.857 226.5C224.384 228.042 222.531 229.256 221.75 231.562C220.795 234.378 222.945 234.538 224.496 234.137C225.855 233.784 229.987 230.838 228.892 234.488C228.117 237.065 226.507 235.546 225.362 237.058L225.356 237.052Z" fill="#B0DA3E"/>
<ellipse cx="4.5693" cy="5.4444" rx="4.5693" ry="5.4444" transform="matrix(0.891659 0.452717 -0.453386 0.89131 168.528 159.031)" fill="#C50705"/>
<ellipse cx="1.90855" cy="2.27407" rx="1.90855" ry="2.27407" transform="matrix(0.891659 0.452717 -0.453386 0.89131 148.751 184.813)" fill="white"/>
<ellipse cx="1.90855" cy="2.27407" rx="1.90855" ry="2.27407" transform="matrix(0.891659 0.452717 -0.453386 0.89131 151.498 171.104)" fill="white"/>
<ellipse cx="1.90855" cy="2.27407" rx="1.90855" ry="2.27407" transform="matrix(0.891659 0.452717 -0.453386 0.89131 161.589 165.502)" fill="white"/>
<ellipse cx="1.90855" cy="2.27407" rx="1.90855" ry="2.27407" transform="matrix(0.891659 0.452717 -0.453386 0.89131 167.247 171.297)" fill="white"/>
<ellipse cx="1.90855" cy="2.27407" rx="1.90855" ry="2.27407" transform="matrix(0.891659 0.452717 -0.453386 0.89131 157.035 209.258)" fill="white"/>
<ellipse cx="1.90855" cy="2.27407" rx="1.90855" ry="2.27407" transform="matrix(0.891659 0.452717 -0.453386 0.89131 151.256 213.483)" fill="white"/>
<ellipse cx="1.90855" cy="2.27407" rx="1.90855" ry="2.27407" transform="matrix(0.891659 0.452717 -0.453386 0.89131 147.975 224.037)" fill="white"/>
<ellipse cx="1.90855" cy="2.27407" rx="1.90855" ry="2.27407" transform="matrix(0.891659 0.452717 -0.453386 0.89131 201.854 151.683)" fill="white"/>
<ellipse cx="1.90855" cy="2.27407" rx="1.90855" ry="2.27407" transform="matrix(0.891659 0.452717 -0.453386 0.89131 209.723 140.611)" fill="white"/>
<ellipse cx="1.90855" cy="2.27407" rx="1.90855" ry="2.27407" transform="matrix(0.891659 0.452717 -0.453386 0.89131 219.468 139.873)" fill="white"/>
<ellipse cx="1.90855" cy="2.27407" rx="1.90855" ry="2.27407" transform="matrix(0.891659 0.452717 -0.453386 0.89131 217.86 154.172)" fill="white"/>
<ellipse cx="1.90855" cy="2.27407" rx="1.90855" ry="2.27407" transform="matrix(0.891659 0.452717 -0.453386 0.89131 222.725 246.729)" fill="white"/>
<ellipse cx="1.90855" cy="2.27407" rx="1.90855" ry="2.27407" transform="matrix(0.891659 0.452717 -0.453386 0.89131 230.281 237.66)" fill="white"/>
<ellipse cx="1.90855" cy="2.27407" rx="1.90855" ry="2.27407" transform="matrix(0.891659 0.452717 -0.453386 0.89131 228.075 230.762)" fill="white"/>
<ellipse cx="1.90855" cy="2.27407" rx="1.90855" ry="2.27407" transform="matrix(0.891659 0.452717 -0.453386 0.89131 214.107 225.719)" fill="white"/>
<ellipse cx="4.92309" cy="5.86595" rx="4.92309" ry="5.86595" transform="matrix(-0.413716 0.910365 -0.910743 -0.413063 194.975 148.841)" fill="#C50705"/>
<ellipse cx="1.90855" cy="2.27407" rx="1.90855" ry="2.27407" transform="matrix(0.891659 0.452717 -0.453386 0.89131 223.026 222.394)" fill="white"/>
</svg>
