<svg width="370" height="371" viewBox="0 0 370 371" fill="none" xmlns="http://www.w3.org/2000/svg">
<path d="M135.797 4.78249L157.234 39.4477L144.467 44.6079L135.797 4.78249Z" fill="white"/>
<path d="M243.278 13.0087L238.304 49.4912L220.751 42.1336L243.278 13.0087Z" fill="white"/>
<path d="M209.215 9.80531L219.52 44.4817L206.405 45.871L209.215 9.80531Z" fill="white"/>
<path d="M166.604 4.4059L176.908 39.0823L163.794 40.4716L166.604 4.4059Z" fill="white"/>
<path d="M186.773 0.49876L195.68 35.5599L182.521 36.423L186.773 0.49876Z" fill="black"/>
<path d="M64.1304 56.352L96.006 74.782L82.5444 88.2368L64.1304 56.352Z" fill="white"/>
<path d="M86.1224 37.3381L116.15 58.6462L101.498 70.7939L86.1224 37.3381Z" fill="black"/>
<path d="M113.975 23.8297L137.58 52.0885L120.315 60.0999L113.975 23.8297Z" fill="white"/>
<path d="M268.353 25.5781L260.851 61.6257L243.853 53.0636L268.353 25.5781Z" fill="white"/>
<path d="M292.26 41.1632L279.153 75.5714L263.723 64.4295L292.26 41.1632Z" fill="white"/>
<path d="M339.616 107.95L311.292 131.476L303.329 114.189L339.616 107.95Z" fill="white"/>
<path d="M369.296 197.532L326.034 203.82L326.532 188.456L369.296 197.532Z" fill="white"/>
<path d="M358.59 138.299L325.597 154.644L321.843 135.986L358.59 138.299Z" fill="black"/>
<path d="M317.025 57.7457L288.434 89.5796L279.063 77.4863L317.025 57.7457Z" fill="black"/>
<path d="M331.788 82.8529L305.622 107.833L298.407 96.7939L331.788 82.8529Z" fill="white"/>
<path d="M368.822 166.768L333.738 175.587L332.908 162.425L368.822 166.768Z" fill="white"/>
<path d="M367.194 223.041L331.025 222.378L333.666 209.457L367.194 223.041Z" fill="white"/>
<path d="M358.871 248.679L323.554 240.848L328.708 228.709L358.871 248.679Z" fill="black"/>
<path d="M359.638 280.442L317.559 264.558L323.975 253.036L359.638 280.442Z" fill="white"/>
<path d="M330.361 289.562L297.443 274.561L305.008 263.758L330.361 289.562Z" fill="white"/>
<path d="M321.987 313.097L292.476 292.409L300.587 284.098L321.987 313.097Z" fill="white"/>
<path d="M45.8287 75.236L79.4952 90.1451L67.5525 104.965L45.8287 75.236Z" fill="white"/>
<path d="M16.9935 95.8749L60.4571 113.648L52.1616 126.99L16.9935 95.8749Z" fill="black"/>
<path d="M18.3962 140.121L54.2955 145.921L48.8259 160.032L18.3962 140.121Z" fill="white"/>
<path d="M11.6998 168.862L47.5602 164.709L46.864 177.029L11.6998 168.862Z" fill="white"/>
<path d="M5.87613 193.587L41.5679 186.571L41.3122 201.798L5.87613 193.587Z" fill="white"/>
<path d="M16.2091 222.093L46.6567 201.959L52.399 217.326L16.2091 222.093Z" fill="white"/>
<path d="M2.67767 256.92L42.838 234.84L47.4761 247.252L2.67767 256.92Z" fill="black"/>
<path d="M32.2093 273.34L60.429 250.187L67.7186 264.883L32.2093 273.34Z" fill="white"/>
<path d="M52.5151 297.331L76.3787 269.709L86.065 282.949L52.5151 297.331Z" fill="white"/>
<path d="M71.844 326.792L86.5726 293.393L99.7114 303.215L71.844 326.792Z" fill="black"/>
<path d="M94.5901 343.935L106.531 309.44L120.431 318.153L94.5901 343.935Z" fill="white"/>
<path d="M120.035 355.752L127.595 320.041L142.47 326.958L120.035 355.752Z" fill="white"/>
<path d="M140.799 363.617L144.312 327.284L159.868 332.492L140.799 363.617Z" fill="white"/>
<path d="M167.922 369.788L163.238 333.588L179.564 335.192L167.922 369.788Z" fill="black"/>
<path d="M194.396 369.519L184.608 334.353L200.997 333.618L194.396 369.519Z" fill="white"/>
<path d="M223.502 368.552L208.356 335.34L224.43 332.061L223.502 368.552Z" fill="white"/>
<path d="M252.383 359.364L233.606 328.061L249.211 322.999L252.383 359.364Z" fill="white"/>
<path d="M283.88 345.007L256.365 321.02L269.649 311.393L283.88 345.007Z" fill="white"/>
<path d="M297.718 318.628L267.943 297.513L280.197 286.606L297.718 318.628Z" fill="black"/>
<path d="M132.585 261.999C135.241 268.823 143.217 279.664 153.881 268.432C164.544 257.199 174.015 266.382 177.417 272.378C181.66 277.763 192.642 284.224 202.627 266.984C212.612 249.743 223.673 260.434 227.956 267.935" stroke="#A30200" stroke-width="6.489"/>
<path d="M144.934 126.733C145.572 131.148 149.145 138.243 158.328 131.296C167.511 124.35 172.385 130.418 173.674 134.32C175.64 137.851 182.009 142.212 191.76 131.414C201.51 120.616 207.208 127.68 208.839 132.563" stroke="#A30200" stroke-width="6.489"/>
<ellipse cx="186.929" cy="188.185" rx="153.032" ry="157.358" transform="rotate(-0.415182 186.929 188.185)" fill="#C50705"/>
<ellipse cx="186.929" cy="188.188" rx="140.054" ry="143.299" transform="rotate(-0.415182 186.929 188.188)" fill="black"/>
<path d="M138.857 106.865C141.512 113.69 149.489 124.53 160.152 113.298C170.815 102.065 180.286 111.248 183.688 117.244C187.931 122.63 198.914 129.091 208.898 111.85C218.883 94.6091 229.945 105.3 234.228 112.801" stroke="#7FAF25" stroke-width="6.489"/>
<path d="M155.401 265.829C156.039 270.244 159.612 277.338 168.795 270.392C177.978 263.446 182.852 269.514 184.141 273.416C186.107 276.946 192.476 281.308 202.226 270.509C211.976 259.711 217.675 266.776 219.306 271.658" stroke="#7FAF25" stroke-width="6.489"/>
<path d="M189.427 158.038C190.675 157.296 194.243 153.228 195.248 151.893C196.592 150.106 197.954 148.192 198.628 146.048L200.241 146.271C200.316 146.698 200.481 147.137 200.321 147.574C199.631 149.486 195.782 154.204 194.471 156.403C193.46 158.098 192.321 159.778 191.74 161.693C196.423 166.482 198.927 172.882 200.694 179.254C201.715 182.933 201.983 187.073 202.963 190.486C204.783 196.822 206.087 198.455 205.92 205.769C205.819 210.225 205.69 210.251 206.318 214.609C207.046 219.679 205.871 223.718 203.481 228.2C201.421 232.06 197.315 234.431 193.31 235.897C189.19 237.404 189.142 236.682 185.253 239.343C181.363 242.004 177.009 242.42 174.68 237.788C174.221 236.874 174.045 235.111 173.541 234.46C171.892 232.341 167.788 230.91 165.248 227.024C155.402 211.954 163.498 194.886 176.857 185.466C177.53 184.991 180.152 183.841 180.268 183.692C181.213 182.475 180.149 175.155 180.153 173.092C180.157 170.591 181.291 165.406 180.536 163.28C177.854 160.103 174.998 157.024 172.097 154.051C171.326 153.263 166.959 149.545 166.938 149.191C166.91 148.797 167.445 148.255 167.732 148.221C169.189 148.059 179.999 159.772 183.323 159.313C184.044 159.213 184.834 158.395 185.606 158.263C186.84 158.061 188.293 158.718 189.436 158.035L189.427 158.038Z" fill="white"/>
<ellipse cx="3.48154" cy="4.14832" rx="3.48154" ry="4.14832" transform="matrix(0.607544 0.794291 -0.794743 0.60694 168.498 143.683)" fill="#C50705"/>
<ellipse cx="3.48154" cy="4.14832" rx="3.48154" ry="4.14832" transform="matrix(0.817275 -0.576255 0.575633 0.817703 195.043 146.774)" fill="#C50705"/>
<path d="M170.978 206.753C175.325 193.908 188.832 196.261 195.042 199.044C194.985 199.958 194.61 201.836 193.561 202.03C192.25 202.273 187.885 198.471 181.636 202.068C175.387 205.666 176.843 213.532 176.547 214.129C176.282 214.663 180.014 226.827 188.384 223.87C196.753 220.913 194.313 213.416 189.467 208.483C184.622 203.549 181.237 207.972 180.582 208.094C179.926 208.215 183.122 200.573 191.133 207.225C199.144 213.878 198.692 221.69 191.613 226.662C184.499 231.657 165.544 222.809 170.978 206.753Z" fill="#7FAF25"/>
</svg>
