<svg width="267" height="267" viewBox="0 0 267 267" fill="none" xmlns="http://www.w3.org/2000/svg">
<path d="M66.9356 70.2294C67.3476 66.5005 64.5148 52.8065 63.3251 48.6555C61.7335 43.0999 59.9061 37.309 56.5336 32.5795L59.5053 29.6014C60.5027 30.1105 61.6648 30.4546 62.3174 31.4665C65.1872 35.8669 68.9243 51.1533 71.4193 57.281C73.3396 62.0042 75.0326 66.971 78.0749 71.1514C95.2468 68.9507 112.348 73.7516 128.242 80.0295C137.422 83.6538 146.376 89.5468 154.944 92.8421C170.845 98.9552 176.245 98.808 191.07 110.542C200.104 117.691 199.955 117.998 209.922 123.489C221.515 129.882 228.016 138.595 233.539 150.504C238.291 160.766 236.789 172.927 233.575 183.472C230.266 194.315 228.703 193.289 228.135 205.456C227.568 217.623 221.644 227.253 208.462 224.842C205.864 224.366 201.952 221.984 199.825 222.009C192.886 222.111 183.544 228.346 171.573 227.535C125.157 224.375 102.559 181.094 103.933 138.871C104.002 136.744 105.713 129.544 105.587 129.073C104.547 125.228 87.7939 116.023 83.544 112.802C78.3905 108.899 69.4624 98.4844 63.9031 96.7321C53.1737 97.3168 42.3742 98.4117 31.7241 99.7655C28.8987 100.13 14.428 103.348 13.6661 102.838C12.8099 102.282 12.5252 100.336 12.9013 99.6917C14.8365 96.4322 55.8293 92.3766 60.0597 84.8053C60.9763 83.1638 60.5179 80.26 61.45 78.4615C62.954 75.6027 66.5704 73.6286 66.9435 70.2059L66.9356 70.2294Z" fill="white"/>
<ellipse cx="8.99796" cy="10.7212" rx="8.99796" ry="10.7212" transform="matrix(0.999984 -0.00626034 0.00550546 0.999981 4.7334 91.0459)" fill="#C50705"/>
<ellipse cx="8.99796" cy="10.7212" rx="8.99796" ry="10.7212" transform="matrix(0.03256 -0.999474 0.999441 0.0333142 52.4434 41.1094)" fill="#C50705"/>
<path d="M138.685 184.148C118.96 155.177 144.849 130.983 160.259 122.508C162.057 124.049 165.345 127.747 164.113 130.213C162.572 133.295 147.932 136.377 145.621 154.869C143.309 173.361 161.801 182.607 162.572 184.148C163.261 185.526 194.162 196.77 201.097 174.902C208.031 153.034 188.769 146.393 171.047 148.705C153.326 151.016 157.178 164.885 156.408 166.426C155.637 167.967 144.85 149.475 171.047 143.311C197.244 137.147 212.654 150.246 211.883 172.59C211.109 195.041 163.341 220.361 138.685 184.148Z" fill="#7FAF25"/>
</svg>
