<svg width="365" height="366" viewBox="0 0 365 366" fill="none" xmlns="http://www.w3.org/2000/svg">
<path d="M133.901 4.71371L155.039 38.8953L142.45 43.9835L133.901 4.71371Z" fill="white"/>
<path d="M239.88 12.8274L234.975 48.8009L217.667 41.5459L239.88 12.8274Z" fill="white"/>
<path d="M206.295 9.66806L216.456 43.8607L203.524 45.2306L206.295 9.66806Z" fill="white"/>
<path d="M164.281 4.34092L174.441 38.5336L161.509 39.9035L164.281 4.34092Z" fill="white"/>
<path d="M184.171 0.49204L192.954 35.0641L179.978 35.9151L184.171 0.49204Z" fill="black"/>
<path d="M63.2359 55.5649L94.6667 73.7377L81.3929 87.0048L63.2359 55.5649Z" fill="white"/>
<path d="M84.9175 36.8178L114.526 57.8287L100.079 69.8069L84.9175 36.8178Z" fill="black"/>
<path d="M112.384 23.4978L135.659 51.3623L118.635 59.2619L112.384 23.4978Z" fill="white"/>
<path d="M264.607 25.222L257.209 60.7667L240.448 52.3241L264.607 25.222Z" fill="white"/>
<path d="M288.181 40.5881L275.257 74.5162L260.042 63.5298L288.181 40.5881Z" fill="white"/>
<path d="M334.874 106.442L306.946 129.639L299.093 112.594L334.874 106.442Z" fill="white"/>
<path d="M364.147 194.774L321.488 200.974L321.979 185.824L364.147 194.774Z" fill="white"/>
<path d="M353.585 136.369L321.053 152.487L317.351 134.088L353.585 136.369Z" fill="black"/>
<path d="M312.605 56.9374L284.413 88.3271L275.172 76.4026L312.605 56.9374Z" fill="black"/>
<path d="M327.159 81.6957L301.359 106.327L294.244 95.4421L327.159 81.6957Z" fill="white"/>
<path d="M363.678 164.441L329.084 173.137L328.266 160.158L363.678 164.441Z" fill="white"/>
<path d="M362.07 219.928L326.405 219.275L329.01 206.534L362.07 219.928Z" fill="white"/>
<path d="M353.861 245.21L319.036 237.487L324.119 225.518L353.861 245.21Z" fill="black"/>
<path d="M354.622 276.528L313.13 260.866L319.456 249.504L354.622 276.528Z" fill="white"/>
<path d="M325.753 285.523L293.294 270.731L300.754 260.079L325.753 285.523Z" fill="white"/>
<path d="M317.493 308.729L288.394 288.33L296.393 280.134L317.493 308.729Z" fill="white"/>
<path d="M45.1905 74.1844L78.3873 88.8856L66.6112 103.498L45.1905 74.1844Z" fill="white"/>
<path d="M16.7578 94.5361L59.615 112.061L51.4352 125.217L16.7578 94.5361Z" fill="black"/>
<path d="M18.1373 138.166L53.5358 143.886L48.1424 157.799L18.1373 138.166Z" fill="white"/>
<path d="M11.5311 166.507L46.8912 162.411L46.2047 174.559L11.5311 166.507Z" fill="white"/>
<path d="M5.79496 190.886L40.9888 183.967L40.7367 198.982L5.79496 190.886Z" fill="white"/>
<path d="M15.9819 218.994L46.0047 199.141L51.6669 214.293L15.9819 218.994Z" fill="white"/>
<path d="M2.63984 253.332L42.2399 231.561L46.8132 243.8L2.63984 253.332Z" fill="black"/>
<path d="M31.7592 269.527L59.5852 246.697L66.7731 261.188L31.7592 269.527Z" fill="white"/>
<path d="M51.7786 293.182L75.3093 265.946L84.8605 279.001L51.7786 293.182Z" fill="white"/>
<path d="M70.8395 322.233L85.3626 289.3L98.3181 298.986L70.8395 322.233Z" fill="black"/>
<path d="M93.2684 339.138L105.042 305.125L118.749 313.716L93.2684 339.138Z" fill="white"/>
<path d="M118.358 350.789L125.812 315.576L140.48 322.396L118.358 350.789Z" fill="white"/>
<path d="M138.834 358.541L142.299 322.715L157.638 327.85L138.834 358.541Z" fill="white"/>
<path d="M165.579 364.627L160.96 328.931L177.058 330.513L165.579 364.627Z" fill="black"/>
<path d="M191.68 364.362L182.029 329.686L198.189 328.962L191.68 364.362Z" fill="white"/>
<path d="M220.381 363.41L205.447 330.661L221.296 327.428L220.381 363.41Z" fill="white"/>
<path d="M248.864 354.348L230.348 323.483L245.735 318.491L248.864 354.348Z" fill="white"/>
<path d="M279.915 340.192L252.785 316.54L265.883 307.047L279.915 340.192Z" fill="white"/>
<path d="M293.566 314.183L264.206 293.362L276.289 282.607L293.566 314.183Z" fill="black"/>
<path d="M130.732 258.343C133.35 265.073 141.215 275.762 151.73 264.686C162.245 253.61 171.583 262.665 174.938 268.577C179.122 273.888 189.951 280.259 199.796 263.258C209.642 246.258 220.549 256.8 224.772 264.196" stroke="#A30200" stroke-width="6.39847"/>
<path d="M142.91 124.965C143.54 129.319 147.063 136.314 156.118 129.465C165.173 122.615 169.979 128.598 171.25 132.446C173.188 135.927 179.468 140.228 189.083 129.58C198.697 118.933 204.316 125.899 205.924 130.713" stroke="#A30200" stroke-width="6.39847"/>
<ellipse cx="184.32" cy="185.562" rx="150.897" ry="155.163" transform="rotate(-0.415182 184.32 185.562)" fill="#C50705"/>
<ellipse cx="184.321" cy="185.56" rx="138.1" ry="141.299" transform="rotate(-0.415182 184.321 185.56)" fill="black"/>
<ellipse cx="188" cy="195.033" rx="27.7465" ry="17.2483" transform="rotate(91.7872 188 195.033)" fill="#7FAF25"/>
<ellipse cx="170.083" cy="193.052" rx="12.0083" ry="24.1998" transform="rotate(29.5846 170.083 193.052)" fill="white"/>
<ellipse cx="202.373" cy="192.753" rx="12.0083" ry="24.1999" transform="rotate(156.877 202.373 192.753)" fill="white"/>
<ellipse cx="186.05" cy="179.786" rx="22.1874" ry="13.1662" transform="rotate(89.9634 186.05 179.786)" fill="#7FAF25"/>
<ellipse cx="185.944" cy="165.089" rx="11.199" ry="12.1574" transform="rotate(51.0966 185.944 165.089)" fill="white"/>
<ellipse cx="176.053" cy="163.673" rx="6.67138" ry="7.94907" transform="rotate(51.0966 176.053 163.673)" fill="#C50705"/>
<ellipse cx="194.974" cy="163.62" rx="6.67138" ry="7.94906" transform="rotate(138.105 194.974 163.62)" fill="#C50705"/>
<path d="M143.759 246.469C146.377 253.199 154.243 263.888 164.757 252.812C175.272 241.736 184.61 250.791 187.965 256.703C192.149 262.014 202.978 268.385 212.824 251.384C222.669 234.384 233.576 244.926 237.799 252.322" stroke="#C50705" stroke-width="6.39847"/>
<path d="M155.41 115.195C156.04 119.549 159.563 126.544 168.618 119.695C177.673 112.846 182.479 118.829 183.75 122.677C185.688 126.158 191.968 130.458 201.583 119.811C211.197 109.163 216.816 116.13 218.424 120.944" stroke="#C50705" stroke-width="6.39847"/>
</svg>
