<svg width="182" height="181" viewBox="0 0 182 181" fill="none" xmlns="http://www.w3.org/2000/svg">
<ellipse cx="73.7635" cy="45.6636" rx="73.7635" ry="45.6636" transform="matrix(0.82284 0.567652 -0.568272 0.823269 59.8047 12.1807)" fill="#7FAF25"/>
<ellipse cx="29.2194" cy="58.8846" rx="29.2194" ry="58.8846" transform="matrix(0.928307 -0.372513 0.371812 0.928028 15.0098 70.7383)" fill="white"/>
<ellipse cx="29.2194" cy="58.8845" rx="29.2194" ry="58.8845" transform="matrix(-0.266653 0.963994 -0.963792 -0.265926 177.01 40.0919)" fill="white"/>
<ellipse cx="53.9878" cy="32.0369" rx="53.9878" ry="32.0369" transform="matrix(0.784943 0.618975 -0.619567 0.785412 39.7198 0.169983)" fill="#7FAF25"/>
<ellipse cx="27.2504" cy="29.5825" rx="27.2504" ry="29.5825" transform="matrix(0.999984 -0.00626034 0.00550546 0.999981 7.49517 12.5088)" fill="white"/>
<ellipse cx="16.2334" cy="19.3424" rx="16.2334" ry="19.3424" transform="matrix(0.999984 -0.00626034 0.00550546 0.999981 0.866262 39.3565)" fill="#C50705"/>
<ellipse cx="16.2334" cy="19.3424" rx="16.2334" ry="19.3424" transform="matrix(0.0494967 0.998737 -0.998774 0.0502507 64.3331 5.32526)" fill="#C50705"/>
</svg>
