<svg width="1313" height="204" viewBox="0 0 1313 204" fill="none" xmlns="http://www.w3.org/2000/svg">
<path d="M30.4611 4.59342L59.9126 127.522L7.15458 128.873L30.4611 4.59342Z" fill="#C50705"/>
<path d="M756.43 11.7526L785.881 134.681L733.123 136.032L756.43 11.7526Z" fill="#C50705"/>
<path d="M858.557 21.4879L888.008 144.416L835.25 145.767L858.557 21.4879Z" fill="#FD2927"/>
<path d="M908.613 37.2878L938.065 160.216L885.307 161.567L908.613 37.2878Z" fill="#C50705"/>
<path d="M87.0048 20.7618L105.513 143.97L74.6414 144.761L87.0048 20.7618Z" fill="#C50705"/>
<path d="M533.774 16.1446L552.283 139.353L521.411 140.144L533.774 16.1446Z" fill="#C50705"/>
<path d="M806.224 11.7012L824.732 134.91L793.86 135.7L806.224 11.7012Z" fill="#C50705"/>
<path d="M961.003 10.4776L979.511 133.686L948.639 134.477L961.003 10.4776Z" fill="#C50705"/>
<path d="M1003.29 14.7725L1021.8 137.981L990.93 138.772L1003.29 14.7725Z" fill="#C50705"/>
<path d="M583.83 28.2042L602.338 151.413L571.467 152.203L583.83 28.2042Z" fill="#C50705"/>
<path d="M145.049 2.48266L170.518 125.513L125.724 126.66L145.049 2.48266Z" fill="#C50705"/>
<path d="M201.883 28.6571L225.947 151.723L183.965 152.799L201.883 28.6571Z" fill="#C50705"/>
<path d="M483.513 15.1776L507.577 138.244L465.595 139.319L483.513 15.1776Z" fill="#C50705"/>
<path d="M259.59 2.00544L288.978 124.935L236.346 126.283L259.59 2.00544Z" fill="#C50705"/>
<path d="M691.337 16.3863L720.725 139.316L668.093 140.664L691.337 16.3863Z" fill="#C50705"/>
<path d="M312.879 18.4701L339.796 141.463L292.107 142.685L312.879 18.4701Z" fill="#C50705"/>
<path d="M370.544 1.77753L394.001 124.859L353.232 125.903L370.544 1.77753Z" fill="#C50705"/>
<path d="M425.852 9.14667L449.309 132.228L408.54 133.273L425.852 9.14667Z" fill="#C50705"/>
<path d="M629.253 5.59882L652.71 128.681L611.941 129.725L629.253 5.59882Z" fill="#C50705"/>
<path d="M1175.9 8.77603L1205.35 131.704L1152.6 133.056L1175.9 8.77603Z" fill="#C50705"/>
<path d="M1278.03 18.5104L1307.48 141.439L1254.72 142.79L1278.03 18.5104Z" fill="#C50705"/>
<path d="M1225.7 8.72271L1244.2 131.931L1213.33 132.722L1225.7 8.72271Z" fill="#C50705"/>
<path d="M1110.81 13.4088L1140.2 136.339L1087.57 137.687L1110.81 13.4088Z" fill="#C50705"/>
<path d="M1048.73 2.62031L1072.18 125.702L1031.41 126.746L1048.73 2.62031Z" fill="#C50705"/>
</svg>
