<svg width="1276" height="125" viewBox="0 0 1276 125" fill="none" xmlns="http://www.w3.org/2000/svg">
<path d="M36.0196 81.2617L5.46491 -14.1551L58.4833 -16.4166L36.0196 81.2617Z" fill="#C50705"/>
<path d="M91.684 108.951L68.7245 -13.2304L104.341 -14.7496L91.684 108.951Z" fill="#C50705"/>
<path d="M684.04 98.5119L661.08 -23.6698L696.696 -25.189L684.04 98.5119Z" fill="#C50705"/>
<path d="M148.082 105.733L117.625 -16.1293L168.235 -18.288L148.082 105.733Z" fill="#C50705"/>
<path d="M495.705 115.858L465.249 -6.00425L515.858 -8.163L495.705 115.858Z" fill="#C50705"/>
<path d="M615.382 120.097L584.926 -1.765L635.535 -3.92375L615.382 120.097Z" fill="#C50705"/>
<path d="M942.36 115.65L911.904 -6.21226L962.513 -8.37101L942.36 115.65Z" fill="#C50705"/>
<path d="M746.229 121.753L715.773 -0.108746L766.382 -2.2675L746.229 121.753Z" fill="#C50705"/>
<path d="M434.146 110.161L403.69 -11.7005L454.299 -13.8593L434.146 110.161Z" fill="#C50705"/>
<path d="M207.915 82.1084L184.036 -27.9833L222.499 -29.624L207.915 82.1084Z" fill="#C50705"/>
<path d="M263.54 107.901L233.849 -13.9934L282.929 -16.087L263.54 107.901Z" fill="#C50705"/>
<path d="M321.883 114.152L302.644 -8.18849L330.819 -9.39034L321.883 114.152Z" fill="#C50705"/>
<path d="M374.811 105.06L355.571 -17.2803L383.747 -18.4821L374.811 105.06Z" fill="#C50705"/>
<path d="M791.693 104.866L772.453 -17.4746L800.629 -18.6765L791.693 104.866Z" fill="#C50705"/>
<path d="M838.077 104.845L818.838 -17.4951L847.014 -18.697L838.077 104.845Z" fill="#C50705"/>
<path d="M889.621 81.6285L870.382 -40.7119L898.558 -41.9138L889.621 81.6285Z" fill="#C50705"/>
<path d="M550.324 112.71L531.085 -9.63087L559.261 -10.8327L550.324 112.71Z" fill="#C50705"/>
<path d="M1194.2 98.0851L1171.24 -24.0966L1206.85 -25.6158L1194.2 98.0851Z" fill="#C50705"/>
<path d="M1005.86 115.433L975.406 -6.42906L1026.01 -8.58781L1005.86 115.433Z" fill="#C50705"/>
<path d="M1125.54 119.671L1095.08 -2.19078L1145.69 -4.34953L1125.54 119.671Z" fill="#C50705"/>
<path d="M1256.39 121.327L1225.93 -0.534527L1276.54 -2.69328L1256.39 121.327Z" fill="#C50705"/>
<path d="M1060.48 112.284L1041.24 -10.0567L1069.42 -11.2585L1060.48 112.284Z" fill="#C50705"/>
</svg>
