<svg width="258" height="367" viewBox="0 0 258 367" fill="none" xmlns="http://www.w3.org/2000/svg">
<path d="M218.98 217.59C220.434 217.767 221.84 219.238 223.237 219.283C225.986 219.366 228.79 215.982 230.992 214.802C234.795 212.77 236.778 220.838 233.504 224.302C231.127 226.82 224.837 222.053 222.852 228.832C220.437 237.078 228.31 235.383 229.384 239.516C229.86 241.335 229.032 243.682 228.141 244.808C223.999 250.034 220.164 239.111 216.104 238.051C207.088 237.652 198.615 238.013 189.744 240.765C184.53 242.383 174.504 247.998 169.766 247.727C165.028 247.457 164.597 238.083 164.028 232.351C162.479 216.74 161.683 207.472 158.747 192.094C157.459 185.355 158.743 181.829 153.656 185.816C145.812 191.966 140.077 197.749 131.494 202.427C127.819 204.428 122.389 205.816 119.104 208.268C117.242 209.656 115.588 212.081 113.423 213.628C111.896 214.716 103.044 218.991 102.669 219.698C102.421 220.164 102.335 220.825 102.197 221.385C102.608 222.987 115.561 224.655 117.617 225.512C123.837 228.115 124.818 236.984 119.568 242.835C116.257 246.528 106.24 248.387 101.776 250.118C92.9399 253.531 75.3904 260.58 68.5408 269.595C66.6628 272.068 62.4274 281.434 60.1966 273.982C58.5931 268.634 63.9332 266.935 65.7477 263.993C70.207 256.746 64.3918 253.466 60.4511 253.905C59.2151 254.043 58.3888 255.452 57.0778 254.561C53.6917 252.265 55.2271 244.429 58.2507 245.533C59.1002 245.843 59.6064 247.23 60.4437 247.911C62.496 249.578 66.66 250.361 69.012 250.477C74.3437 250.735 72.5553 246.765 69.1081 243.9C67.1337 242.26 62.9842 241.889 64.4749 236.39C66.7271 228.074 71.3202 240.692 73.2039 242.298C73.868 242.86 76.6389 244.192 77.3995 244.414C79.9426 245.153 83.4104 242.746 85.7284 241.112C86.1446 240.022 85.5902 240.192 85.1313 239.829C83.731 238.729 82.1971 237.422 80.8263 236.414C78.2521 234.523 70.7945 230.998 69.6581 227.108C66.6652 216.893 76.9886 214.751 80.7464 212.328C83.8411 210.33 87.5118 207.797 90.4786 205.385C92.2113 203.973 98.9488 198.521 99.1451 195.783C98.7087 191.528 95.267 190.821 93.2855 189.134C87.7373 184.408 82.0637 179.457 77.9216 171.597C76.1731 168.285 73.3423 157.579 70.591 162.984C67.7011 168.66 65.6419 176.462 63.062 182.237C56.9091 195.995 46.059 172.798 39.0433 180.887C37.7295 182.402 33.6694 188.355 32.6046 190.343C31.0585 193.236 28.3948 202.76 25.2138 198.833C21.8638 194.695 26.3797 190.247 27.5151 187.004C29.1034 182.471 29.783 177.296 26.7298 173.982C23.4618 170.432 20.6034 174.467 18.3275 172.998C16.0515 171.53 16.023 165.258 18.385 164.416C19.7251 163.936 23.2844 165.694 25.2889 165.669C26.75 165.646 30.2055 164.954 31.2141 163.23C33.867 158.676 30.7883 156.887 29.4588 153.479C27.774 149.155 28.7998 143.927 32.1806 145.925C35.6991 148.006 34.6835 157.568 40.2366 159.559C44.0007 160.908 44.4923 151.054 46.8861 151.864C50.1922 152.983 47.2721 157.152 46.7171 159.309C46.162 161.465 46.2859 167.005 47.728 168.113C48.7931 168.93 57.1087 169.724 58.662 169.593C59.3021 169.538 60.3165 169.437 60.7875 168.683C61.6986 167.227 63.8993 156.349 64.1846 153.76C64.3773 152.012 63.8618 151.365 62.9196 150.785C60.7764 149.451 56.8859 148.628 54.4602 147.737C53.6277 147.432 52.817 146.504 51.9394 146.158C49.1084 145.046 46.8067 147.04 44.0506 142.642C41.6731 138.851 43.2106 134.713 42.6034 130.726C42.1427 127.701 39.8642 123.101 38.954 119.947C36.1551 110.237 36.6563 104.446 42.6678 99.1617C44.5411 97.5163 50.9254 94.8447 51.7091 93.5828C52.6025 92.1392 53.1647 88.4888 54.5389 86.3876C58.8436 79.7987 64.21 90.7869 67.7121 94.2776C70.045 96.6075 72.759 97.7638 75.1612 99.7594C80.7371 104.401 82.3601 110.141 89.592 109.572C93.4312 109.266 94.1817 107.014 96.0165 102.051C97.0674 99.2044 98.7818 94.6511 99.6174 91.8158C99.9386 90.7238 100.459 88.9846 100.406 87.8185C98.7149 82.1484 95.5879 87.9413 93.1153 86.1469C90.2079 84.0407 92.2125 77.0451 94.9938 78.4858C95.5577 78.7789 95.9243 79.6484 96.7097 79.9044C97.7228 80.2357 100.927 78.8629 101.665 77.6253C102.826 75.6806 101.91 67.5759 101.21 65.2264C100.016 61.2087 97.2004 59.8058 96.2326 57.1203C94.6476 52.7168 98.5151 46.4827 101.321 53.4948C102.311 55.9659 105.417 72.544 108.096 64.2218C109.902 58.6146 111.447 52.1278 112.439 46.0048C112.68 44.5121 112.387 43.0765 112.82 41.4128C114.335 35.5864 118.632 38.6531 118.893 43.9867C119.205 50.3462 113.117 55.6895 116.15 62.7769C119.413 70.3917 122.217 65.8821 126.104 65.6977C129.423 65.5426 131.439 71.9348 128.657 75.3755C127.134 77.2595 125.725 75.4622 124.181 75.3408C119.817 74.9934 113.827 76.8489 110.843 82.5659C108.944 86.2108 110.013 91.5384 109.322 95.6951C108.631 99.8518 107.006 103.879 105.976 108.009C105.192 111.149 105.37 114.418 103.739 117.346C101.699 121.014 100.174 115.735 98.1678 116.163C97.8773 116.227 93.3017 120.877 93.2575 121.366C94.2716 124.118 96.3436 125.55 97.803 127.639C101.612 133.086 104.52 140.634 107.022 147.829C110.322 157.316 112.221 167.274 114.181 177.686C115.77 180.407 121.201 179.2 123.336 178.525C128.276 176.964 133.587 173.483 138.5 171.242C141.637 169.814 144.958 169.239 148.081 167.705C151.936 165.808 158.045 159.124 161.5 163.818C165.942 169.85 169.278 189.177 170.425 198.468C171.316 205.684 171.963 228.843 175.701 232.282C177.725 234.146 181.662 230.533 183.681 229.747C186.642 228.595 193.455 230.18 195.731 226.599C198.902 221.616 191.272 218.503 189.783 216.612C188.099 214.467 189.337 207.866 192.101 208.862C194.358 209.675 196.93 215.62 200.377 215.313C205.091 214.888 201.914 201.153 202.644 197.587C203.373 194.02 206.811 193.461 207.605 197.876C208.22 201.296 205.872 205.45 206.652 210.639C207.604 216.974 211.88 215.157 214.453 212.858C216.709 210.84 221.712 201.116 223.218 209.189C224.279 214.889 219.697 213.571 218.997 217.595L218.98 217.59Z" fill="#B0DA3E"/>
<ellipse cx="9.84554" cy="11.7311" rx="9.84554" ry="11.7311" transform="matrix(0.999984 -0.00626034 0.00550546 0.999981 33.1045 124.288)" fill="#C50705"/>
<ellipse cx="4.11238" cy="4.89997" rx="4.11238" ry="4.89997" transform="matrix(0.999984 -0.00626034 0.00550546 0.999981 20.6885 193.2)" fill="white"/>
<ellipse cx="4.11238" cy="4.89997" rx="4.11238" ry="4.89997" transform="matrix(0.999984 -0.00626034 0.00550546 0.999981 12.4102 164.226)" fill="white"/>
<ellipse cx="4.11238" cy="4.89997" rx="4.11238" ry="4.89997" transform="matrix(0.999984 -0.00626034 0.00550546 0.999981 26.2061 143.531)" fill="white"/>
<ellipse cx="4.11238" cy="4.89997" rx="4.11238" ry="4.89997" transform="matrix(0.999984 -0.00626034 0.00550546 0.999981 42.7617 149.05)" fill="white"/>
<ellipse cx="4.11238" cy="4.89997" rx="4.11238" ry="4.89997" transform="matrix(0.999984 -0.00626034 0.00550546 0.999981 60.6914 231.829)" fill="white"/>
<ellipse cx="4.11238" cy="4.89997" rx="4.11238" ry="4.89997" transform="matrix(0.999984 -0.00626034 0.00550546 0.999981 53.7939 245.625)" fill="white"/>
<ellipse cx="4.11238" cy="4.89997" rx="4.11238" ry="4.89997" transform="matrix(0.999984 -0.00626034 0.00550546 0.999981 57.9326 269.08)" fill="white"/>
<ellipse cx="4.11238" cy="4.89997" rx="4.11238" ry="4.89997" transform="matrix(0.999984 -0.00626034 0.00550546 0.999981 89.666 77.3115)" fill="white"/>
<ellipse cx="4.11238" cy="4.89997" rx="4.11238" ry="4.89997" transform="matrix(0.999984 -0.00626034 0.00550546 0.999981 93.8057 48.3389)" fill="white"/>
<ellipse cx="4.11238" cy="4.89997" rx="4.11238" ry="4.89997" transform="matrix(0.999984 -0.00626034 0.00550546 0.999981 111.741 37.3018)" fill="white"/>
<ellipse cx="4.11238" cy="4.89997" rx="4.11238" ry="4.89997" transform="matrix(0.999984 -0.00626034 0.00550546 0.999981 122.78 66.2734)" fill="white"/>
<ellipse cx="4.11238" cy="4.89997" rx="4.11238" ry="4.89997" transform="matrix(0.999984 -0.00626034 0.00550546 0.999981 223.493 238.727)" fill="white"/>
<ellipse cx="4.11238" cy="4.89997" rx="4.11238" ry="4.89997" transform="matrix(0.999984 -0.00626034 0.00550546 0.999981 229.013 213.894)" fill="white"/>
<ellipse cx="4.11238" cy="4.89997" rx="4.11238" ry="4.89997" transform="matrix(0.999984 -0.00626034 0.00550546 0.999981 217.978 202.856)" fill="white"/>
<ellipse cx="4.11238" cy="4.89997" rx="4.11238" ry="4.89997" transform="matrix(0.999984 -0.00626034 0.00550546 0.999981 186.246 206.996)" fill="white"/>
<ellipse cx="10.6079" cy="12.6395" rx="10.6079" ry="12.6395" transform="matrix(0.0494967 0.998737 -0.998774 0.0502507 73.6895 78.6621)" fill="#C50705"/>
<ellipse cx="4.11238" cy="4.89997" rx="4.11238" ry="4.89997" transform="matrix(0.999984 -0.00626034 0.00550546 0.999981 200.046 191.819)" fill="white"/>
</svg>
