<svg width="155" height="193" viewBox="0 0 155 193" fill="none" xmlns="http://www.w3.org/2000/svg">
<path d="M56.1461 59.6871C55.7023 59.2239 55.6333 58.3349 55.1717 57.9323C54.2626 57.1418 52.373 57.5115 51.299 57.3011C49.4454 56.9355 51.0106 53.6488 53.0821 53.3822C54.5863 53.1875 55.3974 56.549 57.9511 54.8004C61.0576 52.6735 57.9172 51.0647 58.6991 49.365C59.0423 48.6161 59.9741 48.0499 60.5886 47.9148C63.4428 47.2914 61.7137 52.0596 62.797 53.5455C65.744 56.1816 68.7179 58.409 72.49 59.9364C74.7072 60.834 79.665 61.7102 81.197 63.1163C82.7289 64.5224 80.2749 67.8209 78.8782 69.9227C75.0733 75.6472 72.7729 79.0115 69.5031 85.0416C68.0706 87.6843 66.6571 88.524 69.4885 88.5828C73.8547 88.6726 77.4038 88.3022 81.6123 89.0961C83.4137 89.4366 85.6403 90.4722 87.4346 90.5515C88.4512 90.5975 89.6849 90.2335 90.8482 90.3094C91.6677 90.3639 95.8557 91.3695 96.1794 91.2336C96.3925 91.1443 96.6048 90.9439 96.8072 90.7923C97.1124 90.135 93.1819 85.9764 92.7221 85.1155C91.3345 82.5075 93.462 79.2273 96.8651 78.699C99.0126 78.3649 102.926 80.5128 104.92 81.1641C108.863 82.4574 116.77 84.9343 121.594 83.7767C122.917 83.4588 126.951 81.4568 125.641 84.6031C124.701 86.8618 122.419 85.9568 120.988 86.4512C117.465 87.6722 118.528 90.3976 119.986 91.3419C120.443 91.6378 121.114 91.3892 121.312 92.0552C121.823 93.7731 119.129 96.0046 118.41 94.7915C118.208 94.4509 118.421 93.84 118.326 93.3768C118.092 92.2423 116.897 90.8216 116.131 90.1301C114.395 88.5638 113.9 90.4061 114.275 92.334C114.489 93.4379 115.794 94.7147 113.763 96.1662C110.693 98.3619 112.635 92.8083 112.441 91.7413C112.372 91.3663 111.802 90.1461 111.605 89.8598C110.947 88.9039 109.104 88.7581 107.864 88.6695C107.421 88.924 107.656 89.0199 107.711 89.2705C107.881 90.0319 108.039 90.9005 108.224 91.6228C108.573 92.9779 110.124 96.242 109.431 97.8766C107.612 102.171 103.517 100.034 101.57 99.8139C99.9665 99.6331 98.0188 99.4742 96.3437 99.4693C95.3645 99.4674 91.5671 99.4478 90.7411 100.322C89.7088 101.886 90.6801 103.081 90.8842 104.202C91.4551 107.344 92.006 110.597 91.2308 114.412C90.9052 116.02 88.8958 120.436 91.328 119.366C93.8824 118.243 96.7451 116.168 99.2217 114.925C105.125 111.965 102.371 122.842 106.994 122.045C107.859 121.895 110.887 121.003 111.8 120.623C113.127 120.071 116.672 117.58 116.662 119.794C116.65 122.127 113.885 122.383 112.6 123.168C110.804 124.264 109.138 125.831 109.255 127.802C109.378 129.913 111.467 129.337 111.832 130.466C112.196 131.596 110.466 133.731 109.432 133.361C108.844 133.152 108.124 131.569 107.437 131.021C106.936 130.624 105.572 129.9 104.751 130.205C102.589 131.013 103.136 132.474 102.642 133.999C102.014 135.933 100.216 137.421 99.6237 135.806C99.0075 134.124 102.004 131.163 100.673 128.948C99.7705 127.446 96.8707 130.652 96.2836 129.713C95.4725 128.416 97.6194 127.812 98.4058 127.235C99.1921 126.657 100.687 124.744 100.505 123.968C100.37 123.396 97.7703 120.82 97.2071 120.434C96.9748 120.275 96.6026 120.028 96.2337 120.153C95.5208 120.394 91.7574 123.473 90.9422 124.272C90.3923 124.811 90.3877 125.173 90.5463 125.632C90.9031 126.679 91.9943 128.037 92.5698 129.012C92.7677 129.346 92.7851 129.886 92.9868 130.247C93.6386 131.409 94.9723 131.371 94.6873 133.627C94.442 135.572 92.7728 136.549 91.8729 138.07C91.1901 139.224 90.687 141.416 90.1209 142.738C88.3769 146.808 86.6007 148.633 83.0961 148.758C82.0043 148.796 79.098 147.931 78.4822 148.142C77.7788 148.384 76.5756 149.466 75.5267 149.797C72.2391 150.838 73.4669 145.623 73.2473 143.467C73.1023 142.03 72.5025 140.885 72.2413 139.542C71.6376 136.421 72.6793 134.024 70.0686 132.211C68.6817 131.25 67.8024 131.806 65.8035 132.98C64.6576 133.654 62.8132 134.723 61.7434 135.453C61.3315 135.734 60.6725 136.179 60.3671 136.59C59.368 138.982 62.0354 137.885 62.3763 139.179C62.7781 140.7 60.1579 142.516 59.6142 141.256C59.5042 141.001 59.6211 140.604 59.4257 140.299C59.174 139.906 57.7063 139.483 57.1129 139.698C56.1799 140.035 54.2423 143.038 53.828 144.029C53.1185 145.723 53.6845 146.98 53.2679 148.159C52.584 150.092 49.5432 151.134 50.5365 147.977C50.8861 146.865 54.431 140.381 51.2141 142.46C49.0462 143.861 46.7229 145.632 44.6883 147.434C44.1923 147.873 43.8934 148.441 43.2851 148.886C41.1554 150.442 40.5486 148.21 41.9394 146.328C43.5975 144.085 47.1444 143.961 48.0814 140.716C49.0871 137.228 46.8853 137.98 45.5158 136.965C44.3471 136.097 45.4363 133.369 47.334 132.974C48.3734 132.758 48.3526 133.758 48.8425 134.227C50.2263 135.556 52.7726 136.588 55.3704 135.476C57.0256 134.767 58.1406 132.663 59.528 131.445C60.9154 130.227 62.5835 129.312 64.0783 128.197C65.2151 127.349 66.0615 126.191 67.4269 125.651C69.1363 124.973 68.1891 127.186 68.9881 127.597C69.1046 127.656 71.9462 127.348 72.0968 127.195C72.516 125.98 72.2107 124.919 72.2951 123.806C72.5141 120.902 73.6213 117.536 74.7683 114.402C76.2806 110.269 78.3984 106.364 80.6219 102.29C80.8375 100.926 78.6609 99.8285 77.7495 99.4654C75.6411 98.6244 72.8743 98.3323 70.5866 97.7294C69.1263 97.3437 67.8404 96.6176 66.3558 96.2719C64.5223 95.8459 60.5963 96.4181 60.7265 93.8678C60.8929 90.5899 65.1223 83.1096 67.3101 79.6405C69.0095 76.9461 75.2137 68.9119 74.8997 66.7086C74.7306 65.5151 72.3931 65.6482 71.4902 65.3551C70.1666 64.9244 68.2954 62.4972 66.53 63.0804C64.0728 63.8908 65.7971 67.063 65.7774 68.1174C65.7538 69.3119 63.5028 71.2072 62.8417 70.1029C62.3014 69.2011 63.0784 66.4716 61.8241 65.6195C60.1073 64.4558 57.3751 69.9954 56.1386 71.0028C54.9021 72.0102 53.5808 71.2462 54.536 69.5287C55.276 68.1982 57.2248 67.4404 58.3993 65.4642C59.8335 63.0516 57.8795 62.4818 56.3689 62.548C55.0442 62.6064 50.6502 64.5165 52.3783 61.3611C53.5999 59.1334 54.788 60.8515 56.1417 59.6806L56.1461 59.6871Z" fill="#B0DA3E"/>
<ellipse cx="4.31372" cy="5.13987" rx="4.31372" ry="5.13987" transform="matrix(-0.778049 -0.62821 0.628792 -0.777569 93.3091 142.888)" fill="#C50705"/>
<ellipse cx="1.80179" cy="2.14687" rx="1.80179" ry="2.14687" transform="matrix(-0.778049 -0.62821 0.628792 -0.777569 116.632 122.965)" fill="white"/>
<ellipse cx="1.80179" cy="2.14687" rx="1.80179" ry="2.14687" transform="matrix(-0.778049 -0.62821 0.628792 -0.777569 111.407 135.084)" fill="white"/>
<ellipse cx="1.80179" cy="2.14687" rx="1.80179" ry="2.14687" transform="matrix(-0.778049 -0.62821 0.628792 -0.777569 100.988 138.273)" fill="white"/>
<ellipse cx="1.80179" cy="2.14687" rx="1.80179" ry="2.14687" transform="matrix(-0.778049 -0.62821 0.628792 -0.777569 96.9028 131.812)" fill="white"/>
<ellipse cx="1.80179" cy="2.14687" rx="1.80179" ry="2.14687" transform="matrix(-0.778049 -0.62821 0.628792 -0.777569 113.174 98.829)" fill="white"/>
<ellipse cx="1.80179" cy="2.14687" rx="1.80179" ry="2.14687" transform="matrix(-0.778049 -0.62821 0.628792 -0.777569 119.342 96.0604)" fill="white"/>
<ellipse cx="1.80179" cy="2.14687" rx="1.80179" ry="2.14687" transform="matrix(-0.778049 -0.62821 0.628792 -0.777569 124.44 86.9628)" fill="white"/>
<ellipse cx="1.80179" cy="2.14687" rx="1.80179" ry="2.14687" transform="matrix(-0.778049 -0.62821 0.628792 -0.777569 61.0913 143.132)" fill="white"/>
<ellipse cx="1.80179" cy="2.14687" rx="1.80179" ry="2.14687" transform="matrix(-0.778049 -0.62821 0.628792 -0.777569 51.6558 151.81)" fill="white"/>
<ellipse cx="1.80179" cy="2.14687" rx="1.80179" ry="2.14687" transform="matrix(-0.778049 -0.62821 0.628792 -0.777569 42.5112 150.581)" fill="white"/>
<ellipse cx="1.80179" cy="2.14687" rx="1.80179" ry="2.14687" transform="matrix(-0.778049 -0.62821 0.628792 -0.777569 46.8023 137.694)" fill="white"/>
<ellipse cx="1.80179" cy="2.14687" rx="1.80179" ry="2.14687" transform="matrix(-0.778049 -0.62821 0.628792 -0.777569 60.4771 51.2665)" fill="white"/>
<ellipse cx="1.80179" cy="2.14687" rx="1.80179" ry="2.14687" transform="matrix(-0.778049 -0.62821 0.628792 -0.777569 51.7183 58.161)" fill="white"/>
<ellipse cx="1.80179" cy="2.14687" rx="1.80179" ry="2.14687" transform="matrix(-0.778049 -0.62821 0.628792 -0.777569 52.4038 64.9628)" fill="white"/>
<ellipse cx="1.80179" cy="2.14687" rx="1.80179" ry="2.14687" transform="matrix(-0.778049 -0.62821 0.628792 -0.777569 64.3091 72.3641)" fill="white"/>
<ellipse cx="4.64772" cy="5.53784" rx="4.64772" ry="5.53784" transform="matrix(0.593951 -0.804455 0.804961 0.593391 66.8901 147.108)" fill="#C50705"/>
<ellipse cx="1.80179" cy="2.14687" rx="1.80179" ry="2.14687" transform="matrix(-0.778049 -0.62821 0.628792 -0.777569 55.4214 73.6825)" fill="white"/>
</svg>
