<svg width="821" height="654" viewBox="0 0 821 654" fill="none" xmlns="http://www.w3.org/2000/svg">
<g clip-path="url(#clip0_221_25)">
<rect width="651.857" height="819.204" transform="translate(0 651.856) rotate(-89.9016)" fill="black"/>
<path d="M437.83 148.419L418.308 239.97L394.353 228.852L437.83 148.419Z" fill="#C50705"/>
<path d="M491.753 617.928L505.455 533.174L536.028 547.66L491.753 617.928Z" fill="#C50705"/>
<path d="M143.065 373.899L161.229 278.777L185.591 289.193L143.065 373.899Z" fill="white"/>
<path d="M100.048 295.54L140.437 234.69L161.306 263.719L100.048 295.54Z" fill="#C50705"/>
<path d="M141.082 103.881L505.584 374.123C537.527 441.599 617.277 469.106 674.498 507.976C797.004 591.257 917.212 695.117 1028.87 796.081C1069.99 833.269 1112.46 869.676 1149.75 911.684L1135.98 919.78C993.503 825.029 848.552 729.985 714.225 620.33C661.094 576.972 611.994 527.276 559.342 483.862C506.28 440.083 482.584 420.075 419.483 466.638C374.382 418.737 325.578 375.341 280.255 327.613C226.059 270.654 151.043 200.302 137.537 114.001C136.686 108.554 132.061 108.718 141.082 103.881Z" fill="white"/>
<path d="M659.149 602.893L614.102 546.382L643.483 529.024L659.149 602.893Z" fill="white"/>
<path d="M776.631 446.639L769.667 522.189L738.526 509.328L776.631 446.639Z" fill="#C50705"/>
<path d="M403.796 340.544L432.498 271.798L458.126 295.507L403.796 340.544Z" fill="white"/>
<path d="M249.366 75.4624L168.774 55.4829L180.98 23.4714L249.366 75.4624Z" fill="white"/>
<path d="M327.042 349.99L288.171 270.732L319.895 259.794L327.042 349.99Z" fill="white"/>
<path d="M538.488 429.553L490.394 496.107L469.843 466.793L538.488 429.553Z" fill="white"/>
<path d="M826.333 657.292C832.686 584.796 747.689 457.517 641.983 526.638C518.656 607.282 458.862 477.67 465.075 392.68C472.912 285.469 424.929 165.606 271.95 278.024C118.97 390.442 80.4946 35.6053 249.577 -24.7452" stroke="#7FAF25" stroke-width="18.4071"/>
<path d="M128.438 92.6041L167.91 124.367L145.926 143.564L128.438 92.6041Z" fill="white"/>
<path d="M151.161 160.855L145.958 143.589L145.95 140.879L149.936 132.092L156.252 137.484L151.161 160.855Z" fill="#D9D9D9"/>
<path d="M153.271 164.439C151.992 163.506 149.596 156.567 148.406 153.055L147.821 150.99L146.761 144.116L146.049 137.711L151.969 120.026L158.637 122.031C157.428 136.702 154.551 165.372 153.271 164.439Z" fill="white"/>
<path d="M156.839 173.445L155.577 171.486L158.157 171.005L156.839 173.445Z" fill="#D9D9D9"/>
<path d="M483.992 357.866L445.138 329.266L439.341 336.26L437.466 359.141L450.698 446.663C456.732 441.063 476.982 440.023 486.354 440.204L483.992 357.866Z" fill="white"/>
<path d="M451.473 447.112L448.699 445.903L451.056 441.508L472.931 440.516C473.325 440.48 473.69 440.463 474.021 440.466L472.931 440.516C467.517 441.008 456.583 445.027 451.473 447.112Z" fill="#D9D9D9"/>
<path d="M819.204 612.361L795.009 596.642L795.019 600.276L799.226 654.545L819.321 654.465L819.204 612.361Z" fill="white"/>
<path d="M472 440C470.8 440 457.5 444.667 451 447L446.5 447L449 437.5C457.167 438.334 473.2 440 472 440Z" fill="white"/>
</g>
<defs>
<clipPath id="clip0_221_25">
<rect width="651.857" height="819.204" fill="white" transform="translate(0 651.856) rotate(-89.9016)"/>
</clipPath>
</defs>
</svg>
