<svg width="457" height="164" viewBox="0 0 457 164" fill="none" xmlns="http://www.w3.org/2000/svg">
<g clip-path="url(#clip0_241_10545)">
<rect width="457" height="164" fill="black"/>
<path d="M164.73 83.7764L175.186 125.574V84.1578L175.567 83.7764H185.892L186.273 84.1578V162.728H176.212L164.862 117.84V162.728H154.024V84.1578L154.419 83.7764H164.73Z" fill="#B0DA3E"/>
<path d="M269.353 0.944336L279.677 42.7415V0.944336H290.515V79.5147L290.12 79.9092H281.098L269.353 35.0081V79.5147L268.971 79.9092H258.91L258.516 79.5147V0.944336H269.353Z" fill="#B0DA3E"/>
<path d="M294.895 0.944336H316.438C321.725 0.944336 326.394 6.59972 326.591 11.6896C326.328 29.287 327.932 48.0944 326.893 65.5998C326.552 71.4393 324.644 77.3446 318.489 79.1201C314.517 80.2643 300.129 80.4353 295.789 79.9224C295.407 79.8829 295.131 79.8961 294.895 79.5278V0.944336ZM307.021 68.296H311.282C313.031 68.296 314.596 65.3762 314.504 63.7717C313.702 48.3443 315.583 31.8385 314.517 16.5427C314.386 14.7014 313.649 11.5186 311.282 11.5186H307.021V68.2828V68.296Z" fill="#B0DA3E"/>
<path d="M0 162.728V83.7628C6.14201 84.0521 12.6128 83.3945 18.7154 83.7628C26.8959 84.2494 30.9862 87.6558 31.749 96.0205L31.7096 150.707C31.6044 155.994 26.988 162.741 21.2932 162.741H0V162.728ZM12.1262 151.377H16.1244C16.2165 151.377 17.7027 150.707 17.8868 150.562C19.373 149.523 19.3204 147.208 19.6097 145.577C18.7548 130.716 20.7276 114.617 19.5966 99.9003C19.4782 98.3484 18.7154 94.6132 16.6373 94.6132H12.1262V151.377Z" fill="#B0DA3E"/>
<path d="M169.385 0.944336C173.238 1.40466 176.553 3.95616 177.592 7.70449C178.723 11.7685 178.762 25.9332 177.96 30.155C177.329 33.4693 175.869 35.4422 173.133 37.3229C176.421 38.2961 177.96 41.4789 178.262 44.7143C179.17 54.4074 177.513 65.3894 178.289 75.135C178.394 76.4108 179.341 78.5809 179.328 79.2779C179.328 79.5147 179.091 79.9092 178.946 79.9092H167.846C167.136 79.9092 166.833 78.5151 166.702 77.9496C164.795 69.4402 166.899 57.1825 166.255 48.2128C166.163 46.937 165.9 45.7797 164.716 45.1089C164.532 45.0037 163.295 44.5565 163.203 44.5565H159.074L158.692 44.9379V79.8961H147.211L146.829 79.5147V0.944336H169.398H169.385ZM158.666 33.2063H163.44C164.545 33.2063 165.978 31.0625 166.123 29.9578C166.439 27.6824 166.465 15.8325 165.965 13.8991C165.65 12.676 164.124 11.5317 162.914 11.5317H159.047L158.666 11.9131V33.2063Z" fill="#B0DA3E"/>
<path d="M283.545 115.512H291.542V84.1578L291.936 83.7764H303.668V162.728H291.542V128.151H283.545V162.728H271.419V84.1578L271.8 83.7764H283.164L283.545 84.1578V115.512Z" fill="#B0DA3E"/>
<path d="M12.1262 0.944336V32.4303H20.1226V0.944336H32.2488V79.5147L31.8674 79.9092H20.5172L20.1226 79.5147V45.0694H12.1262V79.5147L11.7448 79.9092H0.381409L0 79.5147V0.944336H12.1262Z" fill="#B0DA3E"/>
<path d="M372.728 160.058C368.993 163.688 362.97 164.148 357.985 163.754C348.976 163.043 344.991 156.625 344.425 148.155C343.32 131.847 345.241 114.289 344.465 97.8618C345.464 87.4322 351.001 82.8948 361.339 82.9737C372.268 83.0657 376.635 88.9579 377.213 99.3611C378.081 115.078 376.542 131.57 377.2 147.366C376.753 151.746 376.043 156.836 372.728 160.045V160.058ZM363.43 95.4813C362.194 94.3633 359.892 94.337 358.524 95.1656C357.156 95.9942 356.657 98.3353 356.538 99.8872C355.381 115.091 357.419 131.755 356.551 147.116C356.578 152.916 363.851 154.231 364.811 148.155V98.8613C364.719 97.7829 364.232 96.2046 363.43 95.4813Z" fill="#B0DA3E"/>
<path d="M323.224 83.0789C332.733 82.8421 338.757 85.9329 340.23 95.8495C340.032 112.789 341.611 131.044 340.572 147.918C339.809 160.229 333.351 164.714 321.343 163.767C312.15 163.043 308.441 156.441 307.784 147.918C308.625 131.794 306.705 114.604 307.784 98.6115C308.441 88.8 313.202 83.3419 323.224 83.092V83.0789ZM323.211 94.679C320.475 95.1393 320.081 98.1117 319.936 100.413C318.963 116.025 320.357 132.938 320.252 148.602C322.317 154.363 327.919 153.035 328.432 146.866C329.682 131.912 327.499 115.288 328.446 100.15C328.196 96.8622 327.13 94.0214 323.211 94.679Z" fill="#B0DA3E"/>
<path d="M149.381 108.804H137.768V98.3484C137.768 97.1647 136.637 95.1524 135.401 94.7842C132.573 93.9161 130.64 95.6259 130.311 98.3878L130.271 147.142C130.442 150.365 132.639 152.679 135.966 151.522C136.9 151.193 138.544 149.365 138.544 148.418V126.875H133.125V115.13L133.507 114.749H149.894V162.741H143.318L141.385 155.52C140.714 155.389 140.99 155.626 140.845 155.889C134.059 168.646 119.842 165.661 118.158 151.785V96.8227C119.302 85.3147 127.562 81.8952 138.162 83.2761C144.87 84.1442 149.394 89.1814 149.394 96.0468V108.817L149.381 108.804Z" fill="#B0DA3E"/>
<path d="M47.4788 49.7118V64.8103C47.4788 64.955 47.8471 66.4149 47.9392 66.6779C49.0571 69.8476 53.5419 70.1501 54.7519 66.9278C55.4753 65.0208 55.4095 58.7998 55.1859 56.5903C54.4626 49.6197 43.6779 39.9267 39.9559 33.3769C36.2338 26.8272 35.8524 20.1065 36.3785 12.9387C37.2334 1.31225 46.282 -0.752619 56.3433 0.20748C64.6817 1.00975 66.7071 6.49416 67.0885 13.9645C67.2464 17.121 67.4436 22.8553 67.0885 25.854C67.0491 26.2354 67.0622 26.5116 66.694 26.7483H55.5937L55.2122 26.3669V12.9518C55.2122 12.1758 53.805 10.979 52.9632 10.8212C47.8076 9.88739 48.2285 15.8716 48.5047 19.4095C49.2149 28.8395 62.9325 39.006 66.5099 48.6202C68.943 55.1567 69.0219 67.9142 65.484 74.0562C59.1973 84.9724 35.6025 82.947 35.6025 67.6512V50.1063L35.9839 49.7249H47.4657L47.4788 49.7118Z" fill="#B0DA3E"/>
<path d="M231.687 109.844H220.468L220.087 109.462V96.297C220.087 95.5605 218.916 94.0875 218.101 93.9033C215.22 93.2457 213.669 94.4952 213.379 97.336C211.854 112.513 226.571 119.024 231.371 131.715C233.686 137.818 233.791 150.654 230.7 156.468C224.519 168.107 200.464 165.963 200.464 151.259V132.807H212.327V148.419C212.327 149.602 213.642 151.707 214.905 152.035C218.206 152.903 219.784 150.944 220.074 147.892C220.573 142.54 220.35 137.805 217.443 133.241C209.92 121.378 201.45 117.84 200.964 101.729C200.53 87.2221 206.685 81.5141 221.218 83.2765C226.544 83.9209 231.674 87.6035 231.674 93.4693V109.857L231.687 109.844Z" fill="#B0DA3E"/>
<path d="M267.802 113.71H255.938V98.0984C255.938 96.6122 254.4 94.9288 252.913 94.6789C249.376 94.087 248.402 95.9941 248.192 99.1243C247.1 114.907 249.007 131.965 248.231 147.866C248.468 150.746 250.375 153.008 253.44 151.838C254.584 151.404 255.938 149.589 255.938 148.405V128.414H267.42L267.815 129.308C266.973 145.577 272.773 165.529 249.086 163.78C241.05 163.188 236.618 157.796 236.053 149.97C234.816 132.701 237.013 113.96 236.053 96.5333C237.078 86.643 242.905 82.8552 252.453 82.9867C263.514 83.1445 267.275 87.9713 267.802 98.5982C268.051 103.557 267.591 108.725 267.802 113.71Z" fill="#B0DA3E"/>
<path d="M97.2722 109.844H85.922V98.0993C85.922 97.8231 85.5801 96.0739 85.4617 95.7188C84.6463 93.1541 80.5428 93.0884 79.4512 95.5084C78.7673 97.0208 78.8068 100.782 78.9383 102.505C79.6354 111.856 93.5502 122.246 97.0092 131.9C99.324 138.358 99.416 150.905 96.0097 156.981C89.8545 167.976 66.0361 166.095 66.0361 150.747V132.808H77.8993V147.906C77.8993 148.327 78.6621 150.563 78.9646 150.971C80.5428 153.049 84.1334 152.536 85.1724 150.024C86.093 147.801 85.9483 142.159 85.6064 139.686C84.5542 132.058 74.0194 123.101 70.1133 115.96C65.7205 107.937 63.7214 89.4979 73.546 84.7237C78.1097 82.501 88.7629 82.3431 92.9452 85.3813C95.0232 86.8806 97.2459 90.6421 97.2459 93.2067V109.844H97.2722Z" fill="#B0DA3E"/>
<path d="M222.782 79.9097L231.976 1.37881L232.186 1.06316L246.245 0.931641L256.333 79.9097H245.496L244.865 78.7392L243.562 64.9427H234.79C234.198 69.2039 234.106 73.7151 233.462 77.9369C233.37 78.5813 233.304 79.4625 232.844 79.9097H222.782ZM242.26 53.0664L239.038 24.4212L236.066 53.0664H242.26Z" fill="#B0DA3E"/>
<path d="M111.069 79.9092L120.223 0.944336H134.533L144.739 79.9092H133.388L131.836 64.9422H123.064L121.131 79.9092H111.069ZM130.548 53.0659L127.325 24.4207L124.353 53.0659H130.548Z" fill="#B0DA3E"/>
<path d="M98.8109 0.944336V12.2946H83.594V32.9433H95.4571V45.0694H83.594V67.783H99.337V79.5147L98.9424 79.9092H71.8492L71.4678 79.5147V0.944336H98.8109Z" fill="#B0DA3E"/>
<path d="M47.9915 95.3896V116.025H60.1177V127.77L59.7232 128.151H47.9915V150.484L48.3729 150.865H63.9844V162.728H36.1152V83.7764H63.0769L63.4715 84.1578V94.9951L63.0769 95.3896H47.9915Z" fill="#B0DA3E"/>
<path d="M212.34 0.944336V12.2946H202.278V79.9092H190.797L190.402 79.5147V12.2946H180.341V0.944336H212.34Z" fill="#B0DA3E"/>
<path d="M393.194 83.7764V150.602H407.898V162.728H381.331V83.7764H393.194Z" fill="#B0DA3E"/>
<path d="M114.041 162.728H101.915V84.1578L102.296 83.7764H113.647L114.041 84.1578V162.728Z" fill="#B0DA3E"/>
<path d="M422.036 83.0783C435.319 81.5659 444.789 95.5991 438.2 107.239C432.61 117.116 418.721 118.207 411.527 109.448C403.57 99.742 409.502 84.5119 422.036 83.0783ZM424.14 84.8144H422.601C422.667 85.7614 422.654 86.5768 422.088 87.3791C423.403 87.5106 422.483 85.2221 423.259 85.0643C424.429 84.8276 423.338 87.4317 424.416 87.1292L424.153 84.8276L424.14 84.8144ZM426.994 85.0643C426.547 84.6566 424.969 87.116 425.192 87.3922L426.35 86.853L427.507 87.6553L426.994 85.0775V85.0643ZM420.997 85.643C419.432 84.0779 417.367 87.7868 419.905 87.9315C421.365 88.0104 421.799 86.4453 420.997 85.643ZM417.446 86.6162L416.933 87.9051L415.644 87.3922L417.064 89.4571L416.933 88.4312L418.735 88.6811L417.288 87.9183L417.446 86.6162ZM430.348 86.8793C429.769 86.419 428.967 88.3523 430.216 87.9051C430.637 87.7605 430.506 87.0108 430.348 86.8793ZM433.899 90.4172C434.767 89.5492 434.017 87.7342 432.676 88.155L433.951 89.3124L432.663 89.1809L433.439 90.2067C433.004 90.2331 432.623 90.2462 432.255 89.97C431.952 89.7464 432.058 89.1283 431.637 89.1677C431.531 89.8253 431.939 90.2331 432.413 90.5882C432.807 90.8117 433.583 90.6934 433.886 90.3909L433.899 90.4172ZM412.29 90.746C412.027 91.0222 413.645 92.7977 414.184 92.5347L416.144 90.1278L414.092 88.6811L415.631 90.3514C414.671 91.785 414.131 89.8122 413.053 89.707C415.289 91.7587 414.723 93.0476 412.277 90.7328L412.29 90.746ZM435.766 90.483L433.452 91.9034L434.741 91.7718L434.491 93.5737L435.03 92.048L436.556 92.0217L435.004 91.5088L435.78 90.483H435.766ZM425.837 91.522C424.245 91.2063 421.733 91.7587 420.037 91.522V106.489H429.322V102.491C429.322 100.82 427.678 98.8345 426.231 98.098C429.164 96.9669 428.822 92.1138 425.837 91.522ZM435.951 93.3632C434.727 93.7183 434.964 96.4145 436.871 95.849C438.581 95.3492 437.739 92.8372 435.951 93.3632ZM412.29 93.8367C412.093 93.6394 411.251 93.7183 411.514 94.4812C411.83 95.3755 412.619 94.1787 412.29 93.8367ZM438.344 96.6776L435.766 96.9406C435.727 97.4404 436.463 97.0721 436.819 97.3089C437.187 97.5587 437.042 98.3216 437.068 98.7424C436.911 98.9134 435.78 98.3347 436.029 99.2554L438.607 98.9923C438.647 98.4925 437.91 98.8608 437.555 98.6241C437.187 98.3742 437.332 97.6114 437.305 97.1905C437.463 97.0195 438.594 97.5982 438.344 96.6776ZM412.29 97.1905H409.712C409.528 98.5846 410.186 99.3343 411.383 98.4794L412.29 99.2554L411.264 97.7166L412.29 97.2036V97.1905ZM412.277 100.281L412.158 99.7814C409.383 101.36 409.173 101.662 412.54 102.359C412.5 101.452 411.396 101.794 411.764 100.465L412.277 100.294V100.281ZM436.45 100.334C435.201 100.768 435.832 103.254 437.384 102.833C438.936 102.412 438.594 99.5842 436.45 100.334ZM411.777 106.489C411.922 107.502 414.039 106.002 414.079 105.818L412.685 102.885L410.488 103.911C410.922 105.003 412.001 103.346 412.803 103.648C413.027 104.898 412.553 104.621 411.764 105.069C411.409 105.266 411.119 105.042 411.264 105.713L412.948 104.937L413.579 105.581L411.777 106.489ZM435.517 104.674C438.949 105.424 437.2 103.767 435.253 103.122L436.542 104.411L435.122 104.161L434.859 104.674L435.766 105.963C435.424 106.252 434.057 104.687 434.214 105.963L436.529 106.739L435.503 104.674H435.517ZM435.253 108.291L433.833 106.489C432.939 106.121 433.833 108.646 433.702 108.804L432.163 107.778C431.847 108.133 433.557 109.475 433.846 109.58C434.701 109.909 433.688 107.844 433.978 107.515L435.267 108.291H435.253ZM415.315 107.068C415.118 106.857 414.644 106.726 414.355 106.739C414.144 107.581 414.894 107.041 415.144 107.41C415.854 108.422 414.736 109.54 413.724 108.83C413.355 108.58 413.895 107.83 413.053 108.041C413.408 110.79 416.933 108.804 415.302 107.081L415.315 107.068ZM417.196 108.804C416.801 108.422 415.499 110.566 415.394 110.869C415.788 111.25 417.09 109.106 417.196 108.804ZM432.413 111.132C432.36 110.435 431.545 108.567 430.874 108.935L431.387 109.843L429.585 109.593C429.322 110.448 430.926 110.079 431.137 110.369L430.874 111.908L431.387 110.356L432.413 111.132ZM418.984 109.843C417.34 109.027 416.315 110.356 417.972 111.276L417.695 112.158C418.274 112.026 419.234 110.211 418.971 109.843H418.984ZM429.572 112.67L428.796 110.093L427.77 112.407C427.086 112.289 427.717 110.619 426.744 110.869L427.257 113.183C428.349 113.183 427.98 111.658 428.677 111.119C429.098 111.46 428.677 112.868 429.572 112.657V112.67ZM421.036 113.17C421.154 112.552 421.865 111.395 421.47 110.855L419.774 110.619L419.537 112.92L421.036 113.183V113.17ZM423.64 111.908C423.14 112.407 424.456 113.499 424.666 112.552C424.784 112.013 423.824 111.723 423.64 111.908Z" fill="#B0DA3E"/>
<path d="M422.088 92.417C422.43 91.2991 426.717 92.5354 426.218 94.3504H423.64V95.1264C424.863 95.3236 426.941 94.3767 426.02 96.3495C425.613 97.2307 424.6 97.8225 423.64 97.7042V98.467C424.876 98.5064 426.099 99.072 426.678 100.203C426.77 100.374 427.257 101.86 427.257 101.952V105.687H425.455V100.913C425.455 100.387 423.653 100.387 423.653 100.913V105.687H422.101V92.4039L422.088 92.417Z" fill="#B0DA3E"/>
<path d="M421.063 111.645C420.892 111.803 420.037 111.527 420.037 111.264C420.037 110.488 421.55 111.198 421.063 111.645Z" fill="#B0DA3E"/>
<path d="M420.8 112.671H420.024C420.024 111.724 420.787 111.724 420.8 112.671Z" fill="#B0DA3E"/>
<path d="M420.773 87.3531C420.208 88.2606 418.275 86.827 419.498 85.9459C420.432 85.2751 421.234 86.6298 420.773 87.3531Z" fill="#B0DA3E"/>
<path d="M435.939 93.8767C437.227 93.4559 437.806 94.7711 437.083 95.2709C435.846 96.1257 434.821 94.245 435.939 93.8767Z" fill="#B0DA3E"/>
<path d="M411.001 97.717C411.067 97.7828 411.001 98.0722 410.87 98.23C409.923 99.4005 410.068 96.8885 411.001 97.717Z" fill="#B0DA3E"/>
<path d="M437.765 100.874C438.936 102.032 436.253 103.242 436.135 101.453C436.082 100.664 437.252 100.361 437.765 100.874Z" fill="#B0DA3E"/>
<path d="M426.732 86.6171H426.219L426.482 85.5781H426.732V86.6171Z" fill="#B0DA3E"/>
<path d="M411.514 101.584H410.738C410.738 100.637 411.501 100.637 411.514 101.584Z" fill="#B0DA3E"/>
<path d="M417.841 109.844C418.564 109.686 418.603 110.869 418.09 110.869C417.893 110.869 417.13 110.001 417.841 109.844Z" fill="#B0DA3E"/>
</g>
<defs>
<clipPath id="clip0_241_10545">
<rect width="457" height="164" fill="white"/>
</clipPath>
</defs>
</svg>
