<svg width="89" height="121" viewBox="0 0 89 121" fill="none" xmlns="http://www.w3.org/2000/svg">
<path d="M62.6222 110.762C62.9788 111.526 62.9245 112.488 63.306 113.201C64.0576 114.601 65.8904 115.433 66.8756 116.34C68.5756 117.909 66.6572 120.299 64.6666 119.244C63.2211 118.479 62.9072 114.485 60.2626 114.651C57.0456 114.854 59.7928 118.533 58.8267 119.787C58.4023 120.34 57.447 120.327 56.849 120.072C54.0719 118.883 56.344 115.067 55.5213 112.836C53.0945 108.219 50.5874 104.007 47.2331 100.007C45.2615 97.6551 40.7008 93.5653 39.4441 91.1286C38.1874 88.6918 40.946 86.8599 42.5464 85.5855C46.9056 82.1148 49.5282 80.1163 53.4236 75.9861C55.1303 74.1757 56.5769 74.216 53.913 72.3367C49.805 69.4395 46.4062 67.5426 42.5416 64.0192C40.8875 62.5103 38.9255 60.0101 37.2429 58.7758C36.2898 58.0753 35.0768 57.6589 33.9893 56.8333C33.2234 56.2507 29.4064 52.5217 29.0828 52.4542C28.8697 52.4095 28.6424 52.4802 28.4311 52.507C28.0548 52.99 31.2052 59.8113 31.5235 60.9961C32.4825 64.582 30.0344 66.6047 26.7522 64.9647C24.6808 63.9305 21.2769 59.1979 19.4827 57.2442C15.9353 53.3751 8.80646 45.737 4.09922 43.8349C2.80822 43.3136 -1.2677 42.7907 0.391421 40.3817C1.58148 38.6514 3.61362 41.0525 5.03063 41.461C8.51864 42.462 7.88199 38.9636 6.63284 37.0513C6.24084 36.4517 5.57425 36.2776 5.47744 35.4627C5.22541 33.3592 8.06727 32.7839 8.58304 34.4992C8.72815 34.9811 8.44499 35.4754 8.47255 36.0151C8.54079 37.3374 9.47755 39.5728 10.1073 40.7791C11.5357 43.513 12.2498 41.927 12.1554 39.6946C12.1011 38.4161 11.0416 36.2591 13.1528 36.0638C16.3451 35.7673 13.7666 40.2579 13.8059 41.4847C13.8208 41.9166 14.1952 43.5437 14.3421 43.9656C14.8343 45.3757 16.5543 46.7104 17.712 47.5981C18.1649 47.6201 17.9557 47.3699 17.9376 47.0758C17.8796 46.18 17.8473 45.1812 17.7696 44.3159C17.6225 42.6918 16.5968 38.3227 17.4709 37.0793C19.7635 33.8099 23.341 38.6482 25.1482 40.1264C26.6373 41.3433 28.4538 42.7585 30.0339 43.8395C30.9576 44.4704 34.5383 46.9297 35.4352 46.557C36.6193 45.6039 35.8633 43.746 35.8213 42.4559C35.7045 38.8431 35.6217 35.1282 36.8656 31.6848C37.3887 30.2323 39.878 26.96 37.4393 26.5032C34.878 26.0232 31.8979 26.3287 29.394 26.0221C23.4264 25.2884 27.486 15.8194 23.0164 13.6739C22.1796 13.2721 19.2022 12.2496 18.29 12.055C16.9638 11.7735 13.284 12.0705 13.5911 9.7895C13.9154 7.38669 16.5592 8.89847 17.8768 8.91248C19.7188 8.93287 21.5013 8.38409 21.6563 6.27301C21.823 4.01306 19.7748 3.26631 19.5824 1.86527C19.39 0.464238 21.3093 -0.630607 22.2358 0.415885C22.7623 1.00916 23.2286 3.10746 23.8033 4.11417C24.2234 4.8473 25.4134 6.47105 26.2284 6.68275C28.3778 7.23661 28.0572 5.37529 28.7282 4.11767C29.5804 2.52293 31.477 2.13978 31.8192 4.18926C32.1748 6.32251 28.9492 7.45753 29.908 10.6016C30.5578 12.7327 33.7248 11.2832 34.1527 12.6303C34.7439 14.4907 32.6369 13.736 31.8173 13.8275C30.9977 13.9189 29.3305 14.9357 29.3976 15.8542C29.4479 16.5321 31.5553 20.8636 32.0349 21.6245C32.2328 21.938 32.5508 22.4322 32.9157 22.5398C33.6208 22.7486 37.5856 21.9848 38.4621 21.6826C39.0535 21.4788 39.1065 21.1073 39.0184 20.5321C38.8223 19.2212 37.975 17.1169 37.563 15.7398C37.4211 15.2674 37.4772 14.6985 37.3353 14.1962C36.8763 12.5766 35.6127 11.7591 36.1847 9.61125C36.6774 7.75883 38.3838 7.82152 39.4372 6.82843C40.2365 6.0749 41.0057 4.13315 41.7174 3.13075C43.9097 0.0461407 45.8308 -0.698624 49.1547 1.42337C50.1901 2.08483 52.8164 4.84502 53.4258 5.02296C54.1221 5.22492 55.4028 4.87969 56.4371 5.21088C59.6791 6.24724 57.8201 10.8471 57.7378 13.215C57.6816 14.7932 58.0937 16.3614 58.1598 17.9169C58.3103 21.5291 57.0054 23.3367 59.2255 26.8865C60.4051 28.7705 61.3095 28.761 63.3534 28.8316C64.5252 28.8714 66.4092 28.9518 67.5167 28.8848C67.9431 28.8587 68.6248 28.8218 68.9681 28.594C70.2322 26.7642 67.5678 26.1848 67.42 24.6284C67.245 22.799 69.9615 22.605 70.3054 24.2562C70.3748 24.5911 70.2113 24.9258 70.3547 25.3661C70.5394 25.9342 71.8675 27.3143 72.4563 27.4731C73.3821 27.7235 75.6138 25.8656 76.1378 25.1077C77.0347 23.8134 76.6695 22.1512 77.2211 21.2005C78.126 19.6424 81.1353 20.5192 79.7741 23.1426C79.2946 24.0676 75.0787 28.4902 78.3936 28.4079C80.6275 28.3531 83.0577 28.0149 85.2196 27.4604C85.7466 27.3251 86.105 26.93 86.7386 26.8618C88.9573 26.622 89.2301 29.3179 87.665 30.3686C85.799 31.6214 82.4354 29.4709 81.1154 32.222C79.698 35.1794 81.8766 35.8169 83.0325 37.7459C84.0187 39.3933 82.6247 41.5115 80.7808 40.7012C79.771 40.2572 79.925 39.2371 79.5257 38.4374C78.3983 36.1761 76.1342 33.4742 73.5336 32.9538C71.8764 32.6237 70.5418 34.0809 69.069 34.4483C67.5962 34.8156 65.8991 34.69 64.3388 34.8821C63.1523 35.0274 62.1981 35.6806 60.8371 35.362C59.133 34.9646 60.3241 33.2859 59.6253 32.3478C59.5233 32.2124 56.8005 30.7054 56.6378 30.7673C56.079 31.7529 56.2247 33.0448 55.9955 34.1409C55.3988 37.0007 53.9018 39.7679 52.3986 42.2692C50.4165 45.5681 47.8937 48.2418 45.2482 51.0237C44.8615 52.2945 46.7681 54.826 47.5794 55.7866C49.456 58.0098 52.0276 60.0887 54.1053 62.181C55.4315 63.5175 56.5474 65.0936 57.9019 66.4044C59.5748 68.0222 63.3563 69.9527 62.8909 72.504C62.2936 75.7839 57.2979 80.7961 54.7675 82.9752C52.802 84.6675 45.8685 88.9836 45.8689 91.4617C45.8681 92.8034 48.0917 94.1673 48.9044 95.0501C50.0955 96.3452 51.5352 100.055 53.2794 100.586C55.707 101.327 54.5059 96.9421 54.6662 95.8654C54.8488 94.6463 57.2275 94.1339 57.703 95.6995C58.0917 96.9783 56.9919 99.2994 58.061 100.985C59.5248 103.291 62.847 99.3218 64.1491 99.0752C65.4512 98.8286 66.5954 100.467 65.4633 101.628C64.5864 102.527 62.6456 102.058 61.272 103.346C59.5946 104.917 61.3619 106.761 62.7962 107.663C64.0541 108.453 68.457 109.302 66.4024 111.452C64.9505 112.969 64.0601 110.431 62.6255 110.771L62.6222 110.762Z" fill="black"/>
</svg>
