<svg width="69" height="94" viewBox="0 0 69 94" fill="none" xmlns="http://www.w3.org/2000/svg">
<path d="M23.8473 15.2491C24.6048 14.03 25.8869 8.83604 26.1613 7.20697C26.5287 5.0268 26.8536 2.72653 26.4701 0.537597L27.9872 8.37303e-05C28.2475 0.340404 28.5918 0.650942 28.65 1.10787C28.9144 3.10025 27.6817 8.99312 27.5316 11.5198C27.415 13.4669 27.1797 15.4606 27.5398 17.4055C33.8299 19.4797 38.9402 23.9588 43.39 28.7485C45.9603 31.5143 48.0785 35.026 50.4917 37.5772C54.9714 42.3112 56.8596 43.1516 60.0398 49.6481C61.9784 53.6064 61.8765 53.6876 64.4103 57.2277C67.3566 61.3472 68.1624 65.4274 68.1034 70.4494C68.0502 74.7755 65.5252 78.7248 62.6755 81.834C59.7441 85.0307 59.374 84.4184 57.1702 88.5242C54.9664 92.6301 51.3328 94.9762 47.181 91.9688C46.3626 91.3756 45.4056 89.908 44.6671 89.5659C42.2554 88.456 38.0022 89.0663 34.0043 86.8108C18.5049 78.0603 17.8474 59.3928 25.2897 45.0463C25.6643 44.3234 27.4431 42.1208 27.4772 41.9375C27.7527 40.4387 23.4895 34.4971 22.5542 32.6838C21.4197 30.4861 20.0567 25.4183 18.4271 23.8961C14.6273 22.3273 10.7191 20.923 6.81983 19.6328C5.78456 19.2922 0.258891 18.015 0.0799646 17.7135C-0.123733 17.3802 0.0991956 16.6614 0.33528 16.5012C1.54114 15.6955 16.3591 21.0604 19.0687 19.1453C19.6559 18.73 19.9769 17.6521 20.5954 17.1851C21.5863 16.4466 23.1603 16.362 23.8538 15.2422L23.8473 15.2491Z" fill="black"/>
</svg>
