<svg width="309" height="309" viewBox="0 0 309 309" fill="none" xmlns="http://www.w3.org/2000/svg">
<path d="M204.678 78.0173C208.422 77.7818 221.425 72.6361 225.309 70.7501C230.509 68.2267 235.899 65.4307 239.978 61.295L243.423 63.7102C243.093 64.7803 242.954 65.9843 242.069 66.8012C238.228 70.385 223.812 76.6956 218.205 80.2071C213.882 82.9112 209.28 85.4332 205.686 89.1491C210.807 105.687 209.019 123.359 205.568 140.095C203.576 149.762 199.311 159.597 197.538 168.603C194.251 185.319 195.325 190.613 186.315 207.235C180.827 217.364 180.499 217.271 176.804 228.033C172.5 240.553 165.035 248.455 154.253 255.944C144.961 262.39 132.724 263.003 121.783 261.649C110.532 260.255 111.274 258.539 99.1907 260.072C87.1073 261.606 76.6022 257.426 76.7104 244.026C76.7324 241.385 78.4061 237.122 78.0148 235.031C76.7212 228.213 68.9728 220.082 67.713 208.15C62.8429 161.882 101.592 132.177 143.422 126.269C145.53 125.971 152.916 126.418 153.358 126.213C156.967 124.527 163.154 106.441 165.596 101.7C168.555 95.9521 177.279 85.3659 178.049 79.5881C175.627 69.1191 172.691 58.6688 169.526 48.4102C168.681 45.6896 163.022 31.988 163.393 31.1498C163.794 30.2107 165.662 29.5955 166.361 29.8552C169.905 31.201 180.951 70.8855 189.137 73.7507C190.911 74.3713 193.693 73.4203 195.625 74.0292C198.7 75.0191 201.267 78.2421 204.703 78.021L204.678 78.0173Z" fill="white"/>
<ellipse cx="8.99796" cy="10.7212" rx="8.99796" ry="10.7212" transform="matrix(0.178151 0.984007 -0.984134 0.177407 173.474 20.3213)" fill="#FD2927"/>
<ellipse cx="8.99796" cy="10.7212" rx="8.99796" ry="10.7212" transform="matrix(0.990181 -0.139821 0.139073 0.990278 230.871 58.7324)" fill="#FD2927"/>
<path d="M104.797 168.29C129.943 143.876 158.229 165.218 169.229 178.941C168.02 180.977 164.943 184.852 162.302 184.062C159.001 183.074 153.447 169.183 134.833 170.086C116.219 170.989 110.291 190.796 108.905 191.82C107.666 192.736 101.905 225.111 124.639 228.181C147.374 231.251 150.603 211.133 145.278 194.074C139.953 177.014 126.953 183.194 125.303 182.7C123.652 182.206 140.013 168.4 150.591 193.146C161.169 217.892 150.916 235.326 128.772 238.41C106.523 241.508 73.3645 198.807 104.797 168.29Z" fill="#7FAF25"/>
</svg>
