<svg width="1280" height="190" viewBox="0 0 1280 190" fill="none" xmlns="http://www.w3.org/2000/svg">
<path d="M12.4677 16.6131L42.7047 171.143L-10.0534 172.494L12.4677 16.6131Z" fill="url(#paint0_linear_167_2)"/>
<path d="M734.92 12.6219L763.094 175.899L714.893 177.134L734.92 12.6219Z" fill="url(#paint1_linear_167_2)"/>
<path d="M835.208 11.1384L862.023 174.115L816.524 175.281L835.208 11.1384Z" fill="url(#paint2_linear_167_2)"/>
<path d="M893.585 36.1449L918.23 179.134L876.076 180.213L893.585 36.1449Z" fill="url(#paint3_linear_167_2)"/>
<path d="M69.8697 21.7072L89.1558 176.207L58.2841 176.997L69.8697 21.7072Z" fill="url(#paint4_linear_167_2)"/>
<path d="M515.168 27.8439L534.215 172.725L503.343 173.516L515.168 27.8439Z" fill="url(#paint5_linear_167_2)"/>
<path d="M787.226 7.8127L806.826 174.926L775.954 175.717L787.226 7.8127Z" fill="url(#paint6_linear_167_2)"/>
<path d="M942.039 7.87422L961.67 176.281L930.799 177.072L942.039 7.87422Z" fill="url(#paint7_linear_167_2)"/>
<path d="M984.929 36.2922L1003.8 174.075L972.928 174.866L984.929 36.2922Z" fill="url(#paint8_linear_167_2)"/>
<path d="M562.08 39.985L578.181 175.875L552.751 176.527L562.08 39.985Z" fill="url(#paint9_linear_167_2)"/>
<path d="M127.055 14.5023L153.417 173.419L108.623 174.566L127.055 14.5023Z" fill="url(#paint10_linear_167_2)"/>
<path d="M183.895 40.6767L208.292 177.148L166.309 178.224L183.895 40.6767Z" fill="url(#paint11_linear_167_2)"/>
<path d="M464.896 26.8769L489.547 173.583L447.565 174.659L464.896 26.8769Z" fill="url(#paint12_linear_167_2)"/>
<path d="M239.132 4.76694L267.695 172.445L218.936 173.694L239.132 4.76694Z" fill="url(#paint13_linear_167_2)"/>
<path d="M672.067 1.48995L702.755 176.714L650.123 178.062L672.067 1.48995Z" fill="url(#paint14_linear_167_2)"/>
<path d="M294.394 11.0533L322.308 174.151L274.619 175.373L294.394 11.0533Z" fill="url(#paint15_linear_167_2)"/>
<path d="M351.928 13.4779L376.243 171.087L335.474 172.131L351.928 13.4779Z" fill="url(#paint16_linear_167_2)"/>
<path d="M406.947 9.37728L431.48 175.751L390.711 176.795L406.947 9.37728Z" fill="url(#paint17_linear_167_2)"/>
<path d="M610.333 4.72689L634.903 172.576L594.134 173.62L610.333 4.72689Z" fill="url(#paint18_linear_167_2)"/>
<path d="M1152.6 16.6051L1176.9 171.361L1136.02 172.408L1152.6 16.6051Z" fill="url(#paint19_linear_167_2)"/>
<path d="M1259.83 18.7986L1290.15 176.485L1237.39 177.836L1259.83 18.7986Z" fill="url(#paint20_linear_167_2)"/>
<path d="M1207.17 20.4387L1226.47 175.127L1195.59 175.917L1207.17 20.4387Z" fill="url(#paint21_linear_167_2)"/>
<path d="M1094.97 7.70345L1122.72 173.109L1075.48 174.319L1094.97 7.70345Z" fill="url(#paint22_linear_167_2)"/>
<path d="M1029.97 4.81185L1054.55 173.311L1013.78 174.355L1029.97 4.81185Z" fill="url(#paint23_linear_167_2)"/>
<defs>
<linearGradient id="paint0_linear_167_2" x1="12.4677" y1="16.6131" x2="17.7677" y2="223.549" gradientUnits="userSpaceOnUse">
<stop offset="0.235577" stop-color="#FD2927"/>
<stop offset="0.706731"/>
</linearGradient>
<linearGradient id="paint1_linear_167_2" x1="734.92" y1="12.6219" x2="740.516" y2="231.144" gradientUnits="userSpaceOnUse">
<stop offset="0.235577" stop-color="#FD2927"/>
<stop offset="0.706731"/>
</linearGradient>
<linearGradient id="paint2_linear_167_2" x1="835.208" y1="11.1384" x2="840.793" y2="229.213" gradientUnits="userSpaceOnUse">
<stop offset="0.235577" stop-color="#FD2927"/>
<stop offset="0.706731"/>
</linearGradient>
<linearGradient id="paint3_linear_167_2" x1="893.585" y1="36.1449" x2="898.487" y2="227.512" gradientUnits="userSpaceOnUse">
<stop offset="0.235577" stop-color="#FD2927"/>
<stop offset="0.706731"/>
</linearGradient>
<linearGradient id="paint4_linear_167_2" x1="69.8697" y1="21.7072" x2="75.1591" y2="228.23" gradientUnits="userSpaceOnUse">
<stop offset="0.235577" stop-color="#FD2927"/>
<stop offset="0.706731"/>
</linearGradient>
<linearGradient id="paint5_linear_167_2" x1="515.168" y1="27.8439" x2="520.129" y2="221.542" gradientUnits="userSpaceOnUse">
<stop offset="0.235577" stop-color="#FD2927"/>
<stop offset="0.706731"/>
</linearGradient>
<linearGradient id="paint6_linear_167_2" x1="787.226" y1="7.8127" x2="792.946" y2="231.154" gradientUnits="userSpaceOnUse">
<stop offset="0.235577" stop-color="#FD2927"/>
<stop offset="0.706731"/>
</linearGradient>
<linearGradient id="paint7_linear_167_2" x1="942.039" y1="7.87422" x2="947.803" y2="232.94" gradientUnits="userSpaceOnUse">
<stop offset="0.235577" stop-color="#FD2927"/>
<stop offset="0.706731"/>
</linearGradient>
<linearGradient id="paint8_linear_167_2" x1="984.929" y1="36.2922" x2="989.648" y2="220.526" gradientUnits="userSpaceOnUse">
<stop offset="0.235577" stop-color="#FD2927"/>
<stop offset="0.706731"/>
</linearGradient>
<linearGradient id="paint9_linear_167_2" x1="562.08" y1="39.985" x2="566.732" y2="221.603" gradientUnits="userSpaceOnUse">
<stop offset="0.235577" stop-color="#FD2927"/>
<stop offset="0.706731"/>
</linearGradient>
<linearGradient id="paint10_linear_167_2" x1="127.055" y1="14.5023" x2="132.502" y2="227.152" gradientUnits="userSpaceOnUse">
<stop offset="0.235577" stop-color="#FD2927"/>
<stop offset="0.706731"/>
</linearGradient>
<linearGradient id="paint11_linear_167_2" x1="183.895" y1="40.6767" x2="188.574" y2="223.352" gradientUnits="userSpaceOnUse">
<stop offset="0.235577" stop-color="#FD2927"/>
<stop offset="0.706731"/>
</linearGradient>
<linearGradient id="paint12_linear_167_2" x1="464.896" y1="26.8769" x2="469.924" y2="223.199" gradientUnits="userSpaceOnUse">
<stop offset="0.235577" stop-color="#FD2927"/>
<stop offset="0.706731"/>
</linearGradient>
<linearGradient id="paint13_linear_167_2" x1="239.132" y1="4.76694" x2="244.879" y2="229.166" gradientUnits="userSpaceOnUse">
<stop offset="0.235577" stop-color="#FD2927"/>
<stop offset="0.706731"/>
</linearGradient>
<linearGradient id="paint14_linear_167_2" x1="672.067" y1="1.48995" x2="678.074" y2="236.017" gradientUnits="userSpaceOnUse">
<stop offset="0.235577" stop-color="#FD2927"/>
<stop offset="0.706731"/>
</linearGradient>
<linearGradient id="paint15_linear_167_2" x1="294.394" y1="11.0533" x2="299.985" y2="229.327" gradientUnits="userSpaceOnUse">
<stop offset="0.235577" stop-color="#FD2927"/>
<stop offset="0.706731"/>
</linearGradient>
<linearGradient id="paint16_linear_167_2" x1="351.928" y1="13.4779" x2="357.328" y2="224.316" gradientUnits="userSpaceOnUse">
<stop offset="0.235577" stop-color="#FD2927"/>
<stop offset="0.706731"/>
</linearGradient>
<linearGradient id="paint17_linear_167_2" x1="406.947" y1="9.37728" x2="412.647" y2="231.901" gradientUnits="userSpaceOnUse">
<stop offset="0.235577" stop-color="#FD2927"/>
<stop offset="0.706731"/>
</linearGradient>
<linearGradient id="paint18_linear_167_2" x1="610.333" y1="4.72689" x2="616.083" y2="229.218" gradientUnits="userSpaceOnUse">
<stop offset="0.235577" stop-color="#FD2927"/>
<stop offset="0.706731"/>
</linearGradient>
<linearGradient id="paint19_linear_167_2" x1="1152.6" y1="16.6051" x2="1157.9" y2="223.641" gradientUnits="userSpaceOnUse">
<stop offset="0.235577" stop-color="#FD2927"/>
<stop offset="0.706731"/>
</linearGradient>
<linearGradient id="paint20_linear_167_2" x1="1259.83" y1="18.7986" x2="1265.24" y2="229.944" gradientUnits="userSpaceOnUse">
<stop offset="0.235577" stop-color="#FD2927"/>
<stop offset="0.706731"/>
</linearGradient>
<linearGradient id="paint21_linear_167_2" x1="1207.17" y1="20.4387" x2="1212.47" y2="227.212" gradientUnits="userSpaceOnUse">
<stop offset="0.235577" stop-color="#FD2927"/>
<stop offset="0.706731"/>
</linearGradient>
<linearGradient id="paint22_linear_167_2" x1="1094.97" y1="7.70345" x2="1100.64" y2="229.047" gradientUnits="userSpaceOnUse">
<stop offset="0.235577" stop-color="#FD2927"/>
<stop offset="0.706731"/>
</linearGradient>
<linearGradient id="paint23_linear_167_2" x1="1029.97" y1="4.81185" x2="1035.74" y2="230.169" gradientUnits="userSpaceOnUse">
<stop offset="0.235577" stop-color="#FD2927"/>
<stop offset="0.706731"/>
</linearGradient>
</defs>
</svg>
