<svg width="1280" height="176" viewBox="0 0 1280 176" fill="none" xmlns="http://www.w3.org/2000/svg">
<path d="M40.0099 132.264L6.05476 -44.3059L59.0732 -46.5674L40.0099 132.264Z" fill="url(#paint0_linear_143_2)"/>
<path d="M95.6763 159.953L69.6901 -34.4622L105.306 -35.9815L95.6763 159.953Z" fill="url(#paint1_linear_143_2)"/>
<path d="M688.024 149.514L661.976 -46.3632L697.593 -47.8824L688.024 149.514Z" fill="url(#paint2_linear_143_2)"/>
<path d="M152.081 156.736L119.03 -27.0572L169.639 -29.2159L152.081 156.736Z" fill="url(#paint3_linear_143_2)"/>
<path d="M499.689 166.86L466.31 -24.7655L516.919 -26.9242L499.689 166.86Z" fill="url(#paint4_linear_143_2)"/>
<path d="M619.367 171.099L585.403 -34.4691L636.012 -36.6279L619.367 171.099Z" fill="url(#paint5_linear_143_2)"/>
<path d="M946.342 166.651L912.884 -26.859L963.493 -29.0177L946.342 166.651Z" fill="url(#paint6_linear_143_2)"/>
<path d="M750.212 172.756L716.203 -33.9182L766.812 -36.077L750.212 172.756Z" fill="url(#paint7_linear_143_2)"/>
<path d="M438.128 161.163L404.779 -29.7426L455.389 -31.9014L438.128 161.163Z" fill="url(#paint8_linear_143_2)"/>
<path d="M211.915 133.11L185.563 -36.0034L224.026 -37.644L211.915 133.11Z" fill="url(#paint9_linear_143_2)"/>
<path d="M267.524 158.903L235.037 -29.6919L284.118 -31.7855L267.524 158.903Z" fill="url(#paint10_linear_143_2)"/>
<path d="M325.866 165.154L303.694 -27.1898L331.87 -28.3917L325.866 165.154Z" fill="url(#paint11_linear_143_2)"/>
<path d="M378.794 156.062L356.975 -27.8584L385.15 -29.0603L378.794 156.062Z" fill="url(#paint12_linear_143_2)"/>
<path d="M795.676 155.868L773.665 -32.6147L801.841 -33.8166L795.676 155.868Z" fill="url(#paint13_linear_143_2)"/>
<path d="M842.061 155.847L820.211 -28.7971L848.387 -29.999L842.061 155.847Z" fill="url(#paint14_linear_143_2)"/>
<path d="M893.604 132.629L872.003 -46.0616L900.179 -47.2634L893.604 132.629Z" fill="url(#paint15_linear_143_2)"/>
<path d="M554.308 163.712L531.685 -39.3679L559.861 -40.5698L554.308 163.712Z" fill="url(#paint16_linear_143_2)"/>
<path d="M1198.18 149.087L1172.88 -29.0685L1208.49 -30.5878L1198.18 149.087Z" fill="url(#paint17_linear_143_2)"/>
<path d="M1009.85 166.435L976.468 -25.1446L1027.08 -27.3033L1009.85 166.435Z" fill="url(#paint18_linear_143_2)"/>
<path d="M1129.52 170.672L1095.87 -27.6199L1146.48 -29.7786L1129.52 170.672Z" fill="url(#paint19_linear_143_2)"/>
<path d="M1260.37 172.329L1226.58 -29.0198L1277.19 -31.1785L1260.37 172.329Z" fill="url(#paint20_linear_143_2)"/>
<path d="M1064.46 163.286L1042.42 -25.9507L1070.6 -27.1526L1064.46 163.286Z" fill="url(#paint21_linear_143_2)"/>
<defs>
<linearGradient id="paint0_linear_143_2" x1="40.4232" y1="-106.482" x2="53.0615" y2="132.277" gradientUnits="userSpaceOnUse">
<stop offset="0.347455"/>
<stop offset="0.689712" stop-color="#FD2927"/>
</linearGradient>
<linearGradient id="paint1_linear_143_2" x1="91.6945" y1="-102.081" x2="107.281" y2="160.037" gradientUnits="userSpaceOnUse">
<stop offset="0.347455"/>
<stop offset="0.689712" stop-color="#FD2927"/>
</linearGradient>
<linearGradient id="paint2_linear_143_2" x1="683.96" y1="-114.48" x2="699.697" y2="149.598" gradientUnits="userSpaceOnUse">
<stop offset="0.347455"/>
<stop offset="0.689712" stop-color="#FD2927"/>
</linearGradient>
<linearGradient id="paint3_linear_143_2" x1="151.618" y1="-91.6073" x2="164.995" y2="156.773" gradientUnits="userSpaceOnUse">
<stop offset="0.347455"/>
<stop offset="0.689712" stop-color="#FD2927"/>
</linearGradient>
<linearGradient id="paint4_linear_143_2" x1="498.787" y1="-91.9867" x2="512.853" y2="166.908" gradientUnits="userSpaceOnUse">
<stop offset="0.347455"/>
<stop offset="0.689712" stop-color="#FD2927"/>
</linearGradient>
<linearGradient id="paint5_linear_143_2" x1="617.681" y1="-106.445" x2="632.999" y2="171.166" gradientUnits="userSpaceOnUse">
<stop offset="0.347455"/>
<stop offset="0.689712" stop-color="#FD2927"/>
</linearGradient>
<linearGradient id="paint6_linear_143_2" x1="945.334" y1="-94.7228" x2="959.568" y2="166.702" gradientUnits="userSpaceOnUse">
<stop offset="0.347455"/>
<stop offset="0.689712" stop-color="#FD2927"/>
</linearGradient>
<linearGradient id="paint7_linear_143_2" x1="748.464" y1="-106.272" x2="763.883" y2="172.825" gradientUnits="userSpaceOnUse">
<stop offset="0.347455"/>
<stop offset="0.689712" stop-color="#FD2927"/>
</linearGradient>
<linearGradient id="paint8_linear_143_2" x1="437.267" y1="-96.7185" x2="451.269" y2="161.211" gradientUnits="userSpaceOnUse">
<stop offset="0.347455"/>
<stop offset="0.689712" stop-color="#FD2927"/>
</linearGradient>
<linearGradient id="paint9_linear_143_2" x1="209.91" y1="-95.0984" x2="222.741" y2="133.176" gradientUnits="userSpaceOnUse">
<stop offset="0.347455"/>
<stop offset="0.689712" stop-color="#FD2927"/>
</linearGradient>
<linearGradient id="paint10_linear_143_2" x1="266.494" y1="-95.8232" x2="280.38" y2="158.954" gradientUnits="userSpaceOnUse">
<stop offset="0.347455"/>
<stop offset="0.689712" stop-color="#FD2927"/>
</linearGradient>
<linearGradient id="paint11_linear_143_2" x1="320.551" y1="-93.8268" x2="337.042" y2="165.208" gradientUnits="userSpaceOnUse">
<stop offset="0.347455"/>
<stop offset="0.689712" stop-color="#FD2927"/>
</linearGradient>
<linearGradient id="paint12_linear_143_2" x1="373.952" y1="-91.6228" x2="389.497" y2="156.122" gradientUnits="userSpaceOnUse">
<stop offset="0.347455"/>
<stop offset="0.689712" stop-color="#FD2927"/>
</linearGradient>
<linearGradient id="paint13_linear_143_2" x1="790.577" y1="-97.9349" x2="806.632" y2="155.925" gradientUnits="userSpaceOnUse">
<stop offset="0.347455"/>
<stop offset="0.689712" stop-color="#FD2927"/>
</linearGradient>
<linearGradient id="paint14_linear_143_2" x1="837.178" y1="-92.8083" x2="852.803" y2="155.907" gradientUnits="userSpaceOnUse">
<stop offset="0.347455"/>
<stop offset="0.689712" stop-color="#FD2927"/>
</linearGradient>
<linearGradient id="paint15_linear_143_2" x1="889.055" y1="-108.043" x2="904.023" y2="132.693" gradientUnits="userSpaceOnUse">
<stop offset="0.347455"/>
<stop offset="0.689712" stop-color="#FD2927"/>
</linearGradient>
<linearGradient id="paint16_linear_143_2" x1="548.389" y1="-109.666" x2="566.116" y2="163.755" gradientUnits="userSpaceOnUse">
<stop offset="0.347455"/>
<stop offset="0.689712" stop-color="#FD2927"/>
</linearGradient>
<linearGradient id="paint17_linear_143_2" x1="1195.11" y1="-91.142" x2="1209.07" y2="149.165" gradientUnits="userSpaceOnUse">
<stop offset="0.347455"/>
<stop offset="0.689712" stop-color="#FD2927"/>
</linearGradient>
<linearGradient id="paint18_linear_143_2" x1="1008.95" y1="-92.3502" x2="1023.01" y2="166.484" gradientUnits="userSpaceOnUse">
<stop offset="0.347455"/>
<stop offset="0.689712" stop-color="#FD2927"/>
</linearGradient>
<linearGradient id="paint19_linear_143_2" x1="1128.25" y1="-97.1147" x2="1142.91" y2="170.73" gradientUnits="userSpaceOnUse">
<stop offset="0.347455"/>
<stop offset="0.689712" stop-color="#FD2927"/>
</linearGradient>
<linearGradient id="paint20_linear_143_2" x1="1258.92" y1="-99.5572" x2="1273.86" y2="172.391" gradientUnits="userSpaceOnUse">
<stop offset="0.347455"/>
<stop offset="0.689712" stop-color="#FD2927"/>
</linearGradient>
<linearGradient id="paint21_linear_143_2" x1="1059.32" y1="-91.528" x2="1075.46" y2="163.342" gradientUnits="userSpaceOnUse">
<stop offset="0.347455"/>
<stop offset="0.689712" stop-color="#FD2927"/>
</linearGradient>
</defs>
</svg>
