<svg width="302" height="117" viewBox="0 0 302 117" fill="none" xmlns="http://www.w3.org/2000/svg">
<path d="M34.7842 14.3867L33.0254 66.8263" stroke="#B0DA3E" stroke-width="4.14753" stroke-miterlimit="10"/>
<path d="M23.4061 24.5778L6.08984 13.0889L59.9607 14.3839L48.9318 25.6891" stroke="#B0DA3E" stroke-width="3.5394" stroke-miterlimit="10"/>
<path d="M63.8584 19.8568L107.503 12.5811L96.3377 26.9488" stroke="#B0DA3E" stroke-width="4.11691" stroke-miterlimit="10"/>
<path d="M76.416 18.7852L71.7334 64.0015" stroke="#B0DA3E" stroke-width="4.11691" stroke-miterlimit="10"/>
<path d="M78.1611 42.6162L91.0033 43.1106" stroke="#B0DA3E" stroke-width="4.11691" stroke-miterlimit="10"/>
<path d="M66.5547 65.6283L98.9978 65.0464L90.4076 55.3994" stroke="#B0DA3E" stroke-width="4.11691" stroke-miterlimit="10"/>
<path d="M117.303 66.8237L118.889 11.6016C118.889 11.6016 148.114 10.241 151.106 14.8304C154.098 19.4199 128.749 29.7844 126.985 29.9506" stroke="#B0DA3E" stroke-width="3.97253" stroke-miterlimit="10"/>
<path d="M164.12 8.69238L158.096 68.8233" stroke="#B0DA3E" stroke-width="4.18253" stroke-miterlimit="10"/>
<path d="M166.333 37.0559L179.674 31.0664L182.493 6.69727L179.592 67.257" stroke="#B0DA3E" stroke-width="4.18253" stroke-miterlimit="10"/>
<path d="M197.812 36.5915C202.767 29.6045 207.726 22.6219 212.681 15.6349L205.587 69.4483L236.511 10.0742L234.372 67.0857" stroke="#B0DA3E" stroke-width="4.08628" stroke-miterlimit="10"/>
<path d="M252.532 36.0012C257.7 28.9005 262.868 21.8041 268.035 14.7034L260.637 69.3917L292.881 9.05078L290.646 66.9898" stroke="#B0DA3E" stroke-width="4.20441" stroke-miterlimit="10"/>
<path d="M27.5042 90.1602L27.5042 89.9978L28.4513 89.9978C28.5234 89.9617 28.5821 89.9031 28.6272 89.8219C28.6723 89.7407 28.6948 89.6506 28.6948 89.5513L28.6948 81.2984C28.6948 81.1992 28.6723 81.109 28.6272 81.0278C28.5821 80.9467 28.5234 80.888 28.4513 80.852L27.5042 80.852L27.5042 80.6896L31.0895 80.6896C32.3072 80.6896 33.2091 80.9106 33.7954 81.3525C34.3817 81.7945 34.6748 82.3943 34.6748 83.1519C34.6748 83.9908 34.3636 84.6492 33.7413 85.1272C33.1189 85.6053 32.2936 85.8443 31.2654 85.8443L30.0342 85.8443L30.0342 89.5378C30.0342 89.637 30.0568 89.7317 30.1019 89.8219C30.147 89.9031 30.2056 89.9617 30.2777 89.9978L31.4413 89.9978L31.4413 90.1602L27.5042 90.1602ZM31.0895 85.6819C31.775 85.6819 32.3072 85.47 32.686 85.0461C33.0738 84.6221 33.2677 84.0404 33.2677 83.3008C33.2677 82.5521 33.0693 81.9614 32.6724 81.5284C32.2756 81.0865 31.7164 80.8655 30.9948 80.8655L30.0342 80.8655L30.0342 85.6819L31.0895 85.6819ZM69.3787 87.5219L69.5004 87.5625C69.2298 88.4013 69.054 89.2672 68.9728 90.1602L61.5993 90.1602L61.5993 89.9978L62.5463 89.9978C62.6185 89.9617 62.6771 89.9031 62.7222 89.8219C62.7673 89.7407 62.7899 89.6506 62.7899 89.5513L62.7899 81.2984C62.7899 81.1992 62.7673 81.109 62.7222 81.0278C62.6771 80.9467 62.6185 80.888 62.5463 80.852L61.5993 80.852L61.5993 80.6896L68.6616 80.6896C68.6887 81.5104 68.7834 82.3267 68.9457 83.1384L68.8104 83.1655L67.4575 80.8655L64.1293 80.8655L64.1293 85.2084L66.1181 85.2084C66.2444 85.2084 66.3526 85.1814 66.4428 85.1272C66.542 85.0641 66.6142 84.9919 66.6593 84.9108L66.6863 83.4767L66.8216 83.4767L66.8216 87.1025L66.6863 87.1025L66.6593 85.6684C66.6142 85.5872 66.542 85.5196 66.4428 85.4655C66.3526 85.4023 66.2444 85.3708 66.1181 85.3708L64.1293 85.3708L64.1293 89.9843L67.7551 89.9843L69.3787 87.5219ZM100.97 90.309C100.095 90.309 99.3146 90.1105 98.6291 89.7137C97.9437 89.3078 97.407 88.7351 97.0191 87.9955C96.6313 87.2559 96.4374 86.39 96.4374 85.3978C96.4374 84.4508 96.6268 83.6119 97.0056 82.8814C97.3844 82.1418 97.9211 81.569 98.6156 81.1631C99.3191 80.7482 100.131 80.5408 101.051 80.5408C101.8 80.5408 102.471 80.6806 103.067 80.9602C103.671 81.2308 104.154 81.6276 104.514 82.1508C104.884 82.6739 105.092 83.2963 105.137 84.0178L103.824 84.2208C103.779 83.0843 103.518 82.2184 103.04 81.6231C102.571 81.0188 101.899 80.7167 101.024 80.7167C100.041 80.7167 99.274 81.1 98.7238 81.8667C98.1827 82.6243 97.9121 83.6525 97.9121 84.9514C97.9121 85.9164 98.0699 86.7598 98.3856 87.4813C98.7103 88.1939 99.1568 88.7441 99.725 89.1319C100.293 89.5107 100.943 89.7002 101.673 89.7002C102.557 89.7002 103.301 89.416 103.906 88.8478C104.519 88.2706 104.947 87.4498 105.191 86.3855L105.367 86.4125C105.087 87.6662 104.564 88.6313 103.797 89.3078C103.04 89.9753 102.097 90.309 100.97 90.309ZM134.009 90.1602L134.009 89.9978L135.173 89.9978C135.245 89.9617 135.304 89.9031 135.349 89.8219C135.394 89.7317 135.417 89.637 135.417 89.5378L135.417 80.8655L133.319 80.8655L132.034 83.2196L131.899 83.1925C132.07 82.2455 132.151 81.4112 132.142 80.6896L140.044 80.6896C140.035 81.4112 140.116 82.2455 140.287 83.1925L140.152 83.2196L138.867 80.8655L136.756 80.8655L136.756 89.5378C136.756 89.628 136.778 89.7182 136.824 89.8084C136.869 89.8986 136.927 89.9617 136.999 89.9978L138.163 89.9978L138.163 90.1602L134.009 90.1602ZM171.807 90.309C170.887 90.309 170.066 90.106 169.344 89.7002C168.632 89.2943 168.077 88.726 167.68 87.9955C167.283 87.2559 167.085 86.4125 167.085 85.4655C167.085 84.5004 167.288 83.648 167.694 82.9084C168.1 82.1598 168.663 81.578 169.385 81.1631C170.116 80.7482 170.95 80.5408 171.888 80.5408C172.808 80.5408 173.624 80.7437 174.337 81.1496C175.058 81.5555 175.617 82.1282 176.014 82.8678C176.411 83.5984 176.61 84.4372 176.61 85.3843C176.61 86.3494 176.407 87.2062 176.001 87.9549C175.595 88.6945 175.027 89.2717 174.296 89.6866C173.575 90.1015 172.745 90.309 171.807 90.309ZM171.847 90.1331C172.894 90.1331 173.701 89.7317 174.269 88.929C174.837 88.1172 175.121 86.9672 175.121 85.479C175.121 83.9547 174.837 82.7821 174.269 81.9614C173.701 81.1316 172.894 80.7167 171.847 80.7167C170.801 80.7167 169.994 81.1225 169.426 81.9343C168.857 82.737 168.573 83.8825 168.573 85.3708C168.573 86.8951 168.857 88.0721 169.426 88.9019C169.994 89.7227 170.801 90.1331 171.847 90.1331ZM203.859 90.1602L203.859 89.9978L204.806 89.9978C204.878 89.9617 204.937 89.9031 204.982 89.8219C205.027 89.7407 205.05 89.6506 205.05 89.5513L205.05 81.2984C205.05 81.1992 205.027 81.109 204.982 81.0278C204.937 80.9467 204.878 80.888 204.806 80.852L203.859 80.852L203.859 80.6896L207.444 80.6896C208.662 80.6896 209.564 80.9106 210.15 81.3525C210.736 81.7945 211.029 82.3943 211.029 83.1519C211.029 83.9908 210.718 84.6492 210.096 85.1272C209.474 85.6053 208.648 85.8443 207.62 85.8443L206.389 85.8443L206.389 89.5378C206.389 89.637 206.411 89.7317 206.457 89.8219C206.502 89.9031 206.56 89.9617 206.632 89.9978L207.796 89.9978L207.796 90.1602L203.859 90.1602ZM207.444 85.6819C208.13 85.6819 208.662 85.47 209.041 85.0461C209.429 84.6221 209.622 84.0404 209.622 83.3008C209.622 82.5521 209.424 81.9614 209.027 81.5284C208.63 81.0865 208.071 80.8655 207.35 80.8655L206.389 80.8655L206.389 85.6819L207.444 85.6819ZM245.158 89.9978L245.807 89.9978L245.807 90.1602L241.667 90.1602L241.667 89.9978L243.088 89.9978C243.277 89.8986 243.372 89.7137 243.372 89.4431C243.372 89.2717 243.331 89.0868 243.25 88.8884L242.465 86.9943L238.731 86.9943L238.001 88.8884C237.92 89.0868 237.879 89.2717 237.879 89.4431C237.879 89.7137 237.978 89.8986 238.177 89.9978L239.597 89.9978L239.597 90.1602L236.702 90.1602L236.702 89.9978L237.365 89.9978L241.031 80.622L241.18 80.622L245.158 89.9978ZM240.544 82.3131L238.799 86.8319L242.398 86.8319L240.544 82.3131ZM280.931 80.852C280.858 80.888 280.8 80.9512 280.755 81.0414C280.71 81.1225 280.687 81.2082 280.687 81.2984L280.687 89.5513C280.687 89.6415 280.71 89.7317 280.755 89.8219C280.8 89.9031 280.858 89.9617 280.931 89.9978L281.878 89.9978L281.878 90.1602L278.157 90.1602L278.157 89.9978L279.104 89.9978C279.176 89.9617 279.235 89.9031 279.28 89.8219C279.325 89.7407 279.348 89.6506 279.348 89.5513L279.348 85.3572L274.883 85.3572L274.883 89.5513C274.883 89.6506 274.905 89.7407 274.951 89.8219C274.996 89.9031 275.054 89.9617 275.126 89.9978L276.073 89.9978L276.073 90.1602L272.353 90.1602L272.353 89.9978L273.3 89.9978C273.372 89.9617 273.431 89.9031 273.476 89.8219C273.521 89.7407 273.544 89.6506 273.544 89.5513L273.544 81.2984C273.544 81.1992 273.521 81.109 273.476 81.0278C273.431 80.9467 273.372 80.888 273.3 80.852L272.353 80.852L272.353 80.6896L276.073 80.6896L276.073 80.852L275.126 80.852C275.054 80.888 274.996 80.9467 274.951 81.0278C274.905 81.109 274.883 81.1992 274.883 81.2984L274.883 85.1949L279.348 85.1949L279.348 81.2984C279.348 81.1992 279.325 81.109 279.28 81.0278C279.235 80.9467 279.176 80.888 279.104 80.852L278.157 80.852L278.157 80.6896L281.878 80.6896L281.878 80.852L280.931 80.852Z" fill="#B0DA3E"/>
</svg>
