<svg width="1292" height="446" viewBox="0 0 1292 446" fill="none" xmlns="http://www.w3.org/2000/svg">
<g clip-path="url(#clip0_176_22)">
<rect width="440.187" height="1289.2" transform="translate(1.93965 445.863) rotate(-90.2525)" fill="#B0DA3E"/>
<path d="M1234.69 284.361L1273.31 312.944L1253.45 327.281L1234.69 284.361Z" fill="white"/>
<path d="M186.812 109.892L126.708 51.546L153.624 34.6231L186.812 109.892Z" fill="#C50705"/>
<path d="M629.711 54.1072L591.951 28.7081L612.996 13.1632L629.711 54.1072Z" fill="#A30200"/>
<path d="M286.656 63.7706L245.535 47.6258L265.299 26.7692L286.656 63.7706Z" fill="white"/>
<path d="M500.336 95.2345L476.247 55.108L502.236 49.0396L500.336 95.2345Z" fill="#C50705"/>
<path d="M52.0307 70.8978L105.698 72.3338L102.634 87.7711L52.0307 70.8978Z" fill="#A30200"/>
<path d="M363.763 109.416L426.19 112.868L420.9 133.367L363.763 109.416Z" fill="#C50705"/>
<path d="M139.926 142.624L100.039 143.105L107.719 120.41L139.926 142.624Z" fill="#C50705"/>
<path d="M144.789 193.824L80.4512 165.245L93.4782 147.274L144.789 193.824Z" fill="white"/>
<path d="M53.8034 214.69L31.5384 170.731L49.2235 166.079L53.8034 214.69Z" fill="white"/>
<path d="M304.06 190.82L322.951 257.692L297.913 259.87L304.06 190.82Z" fill="#C50705"/>
<path d="M532.968 213.011L468.253 225.313L468.242 201.122L532.968 213.011Z" fill="#C50705"/>
<path d="M362.564 338.618L363.431 277.524L380.618 279.915L362.564 338.618Z" fill="#C50705"/>
<path d="M578.045 275.907L626.905 280.056L618.378 302.281L578.045 275.907Z" fill="white"/>
<path d="M647.727 353.835L619.528 348.376L627.86 334.132L647.727 353.835Z" fill="#C50705"/>
<path d="M290.174 388.99L226.033 361.206L242.558 339.718L290.174 388.99Z" fill="white"/>
<path d="M546.219 394.908L503.126 378.569L524.447 356.069L546.219 394.908Z" fill="#C50705"/>
<path d="M143.999 434.928L143.5 395.066L166.535 401.204L143.999 434.928Z" fill="#C50705"/>
<path d="M202.74 437.364L179.536 401.206L205.779 395.079L202.74 437.364Z" fill="#C50705"/>
<path d="M543.959 434.758L506.811 442.088L511.795 415.807L543.959 434.758Z" fill="#C50705"/>
<path d="M863.305 367.342L849.226 424.22L824.801 413.023L863.305 367.342Z" fill="#C50705"/>
<path d="M982.687 220.194L1018.04 280.734L994.275 288.564L982.687 220.194Z" fill="#C50705"/>
<path d="M892.162 470.288L881.541 431.743L905.474 432.434L892.162 470.288Z" fill="#C50705"/>
<path d="M945.707 458.97L913.977 429.203L937.906 417.267L945.707 458.97Z" fill="#C50705"/>
<path d="M1034.49 398.516L965.131 386.221L975.717 361.607L1034.49 398.516Z" fill="white"/>
<path d="M1152.42 94.3581L1118.82 60.9446L1142.52 49.1234L1152.42 94.3581Z" fill="#C50705"/>
<path d="M1054.72 127.346L1116.23 116.435L1116.3 137.523L1054.72 127.346Z" fill="#C50705"/>
<path d="M1225.86 185.413L1166.14 212.125L1159.97 188.667L1225.86 185.413Z" fill="#C50705"/>
<path d="M770.688 213.938L748.423 169.979L766.108 165.327L770.688 213.938Z" fill="white"/>
<path d="M875.988 158.145L836.102 158.626L843.781 135.931L875.988 158.145Z" fill="#C50705"/>
<path d="M915.698 115.328L855.594 56.9815L882.51 40.0586L915.698 115.328Z" fill="#C50705"/>
<path d="M1186.84 442.735L1174.19 395.131L1199.11 394.973L1186.84 442.735Z" fill="#C50705"/>
<path d="M792.437 64.8065L846.104 66.2425L843.04 81.6798L792.437 64.8065Z" fill="#A30200"/>
<path d="M865.794 198.122L801.456 169.543L814.483 151.571L865.794 198.122Z" fill="white"/>
<path d="M1021.23 86.9039L980.108 70.7591L999.873 49.9025L1021.23 86.9039Z" fill="white"/>
<path d="M1180.2 327.69L1248.89 354.254L1230.74 379.122L1180.2 327.69Z" fill="#C50705"/>
<path d="M728.643 226.326C733.898 245.012 732.453 279.443 684.631 267.682" stroke="black" stroke-width="27.4825"/>
<path d="M185.871 661.837C206.366 633.367 341.374 559.957 367.873 598.836C400.996 647.435 462.715 602.802 506.872 583.336C551.03 563.871 536.792 490.746 603.372 557.336C669.952 623.927 745.453 478.782 735.614 457.431C725.776 436.08 783.673 353.472 822.149 396.047C860.625 438.622 961.023 429.907 961.752 364.239C962.481 298.571 979.067 252.299 1062.84 271.495C1146.62 290.69 1196.33 197.501 1143.06 160.18C1089.79 122.858 1090.16 29.5613 1175.9 28.137C1261.65 26.7127 1299.85 -60.5355 1275.08 -83.4933" stroke="black" stroke-width="28.9308"/>
<path d="M729.491 228.509C723.691 199.811 726.137 145.377 782.317 157.227C838.497 169.077 848.985 116.579 847.206 88.8488C849.29 61.1466 870.067 14.0449 936.499 47.2556C1002.93 80.4662 1015.25 19.2629 1013.11 -15.4901" stroke="black" stroke-width="27.4843"/>
<path d="M1326.07 325.106C1303.95 312.913 1258.43 300.772 1253.27 349.759C1248.1 398.745 1202.04 393.68 1179.66 385.024C1156.27 379.532 1109.99 384.577 1121.64 447.188C1131.58 500.623 1070.07 541.409 1041.99 530.631" stroke="black" stroke-width="27.4201"/>
<path d="M-429.958 279.885C-404.929 254.879 -349.976 215.47 -330.399 257.886C-305.927 310.907 -287.091 386.025 -240.236 373.501C-193.381 360.977 -179.908 310.146 -125.465 386.011C-71.0225 461.875 -2.77732 424.761 -8.87767 402.183C-14.978 379.605 56.0985 306.808 86.8687 354.692C117.639 402.575 218.168 409.201 229.979 344.459C241.79 279.718 265.971 236.538 345.384 268.206C424.797 299.873 489.581 215.384 443.332 170.445C397.082 125.506 413.198 33.4234 498.037 45.0263C582.877 56.6291 635.304 -23.7388 614.752 -50.168" stroke="black" stroke-width="27.8553"/>
<path d="M-10.2566 240.901C-18.3026 212.7 -20.1522 158.257 36.8168 166.095C93.7857 173.934 100.111 120.852 96.1519 93.3305C96.0482 65.5642 113.06 17.1339 181.938 45.5433C250.816 73.9527 258.285 12.0615 253.41 -22.4352" stroke="black" stroke-width="27.4843"/>
<path d="M698.21 271.675C675.193 261.083 628.836 252.201 627.544 301.405C626.251 350.61 579.91 348.819 556.902 341.773C533.141 337.953 489.283 345.821 503.93 407.856C518.578 469.892 411.226 487.096 382.373 478.337" stroke="black" stroke-width="27.4843"/>
</g>
<defs>
<clipPath id="clip0_176_22">
<rect width="440.187" height="1289.2" fill="white" transform="translate(1.93965 445.863) rotate(-90.2525)"/>
</clipPath>
</defs>
</svg>
