<svg width="1292" height="446" viewBox="0 0 1292 446" fill="none" xmlns="http://www.w3.org/2000/svg">
<g clip-path="url(#clip0_185_129)">
<rect width="440.187" height="1289.2" transform="translate(1.93965 445.863) rotate(-90.2525)" fill="#B0DA3E"/>
<path d="M1234.69 284.361L1273.31 312.944L1253.45 327.281L1234.69 284.361Z" fill="white"/>
<path d="M286.656 63.771L245.535 47.6263L265.299 26.7697L286.656 63.771Z" fill="#FD2927"/>
<path d="M144.789 193.824L80.4512 165.245L93.4782 147.274L144.789 193.824Z" fill="#FD2927"/>
<path d="M53.8043 214.69L31.5394 170.73L49.2245 166.078L53.8043 214.69Z" fill="#FD2927"/>
<path d="M578.046 275.907L626.906 280.056L618.379 302.281L578.046 275.907Z" fill="#FD2927"/>
<path d="M290.174 388.99L226.033 361.207L242.558 339.719L290.174 388.99Z" fill="#FD2927"/>
<path d="M1034.49 398.516L965.131 386.221L975.717 361.607L1034.49 398.516Z" fill="#C50705"/>
<path d="M770.688 213.939L748.423 169.979L766.108 165.327L770.688 213.939Z" fill="#FD2927"/>
<path d="M880.877 207.921L805.227 171.992L818.254 154.021L880.877 207.921Z" fill="#FD2927"/>
<path d="M1021.23 86.9039L980.108 70.7591L999.873 49.9025L1021.23 86.9039Z" fill="#FD2927"/>
<path d="M186.812 109.892L126.708 51.5455L153.624 34.6226L186.812 109.892Z" fill="white"/>
<path d="M629.711 54.1077L591.951 28.7086L612.996 13.1637L629.711 54.1077Z" fill="white"/>
<path d="M500.335 95.234L476.246 55.1075L502.235 49.0391L500.335 95.234Z" fill="white"/>
<path d="M52.0298 70.8978L105.697 72.3338L102.633 87.7711L52.0298 70.8978Z" fill="white"/>
<path d="M363.763 109.417L426.19 112.868L420.9 133.367L363.763 109.417Z" fill="white"/>
<path d="M139.926 142.625L100.039 143.106L107.719 120.411L139.926 142.625Z" fill="white"/>
<path d="M304.06 190.82L322.951 257.692L297.913 259.87L304.06 190.82Z" fill="white"/>
<path d="M532.968 213.011L468.253 225.313L468.242 201.122L532.968 213.011Z" fill="white"/>
<path d="M362.563 338.618L363.43 277.524L380.617 279.916L362.563 338.618Z" fill="white"/>
<path d="M647.727 353.835L619.528 348.376L627.86 334.132L647.727 353.835Z" fill="white"/>
<path d="M546.218 394.908L503.125 378.57L524.446 356.07L546.218 394.908Z" fill="white"/>
<path d="M143.999 434.928L143.5 395.066L166.535 401.204L143.999 434.928Z" fill="white"/>
<path d="M202.739 437.364L179.535 401.206L205.778 395.079L202.739 437.364Z" fill="white"/>
<path d="M543.958 434.758L506.81 442.088L511.794 415.807L543.958 434.758Z" fill="white"/>
<path d="M863.305 367.341L849.226 424.219L824.801 413.023L863.305 367.341Z" fill="white"/>
<path d="M982.687 220.194L1018.04 280.734L994.275 288.564L982.687 220.194Z" fill="white"/>
<path d="M892.162 470.287L881.541 431.742L905.474 432.433L892.162 470.287Z" fill="white"/>
<path d="M945.707 458.97L913.977 429.203L937.906 417.266L945.707 458.97Z" fill="white"/>
<path d="M1152.42 94.3581L1118.82 60.9446L1142.52 49.1234L1152.42 94.3581Z" fill="white"/>
<path d="M1054.72 127.345L1116.23 116.434L1116.3 137.522L1054.72 127.345Z" fill="white"/>
<path d="M1225.86 185.413L1166.14 212.125L1159.97 188.666L1225.86 185.413Z" fill="white"/>
<path d="M875.988 158.145L836.102 158.626L843.781 135.931L875.988 158.145Z" fill="white"/>
<path d="M915.698 115.328L855.594 56.982L882.51 40.0591L915.698 115.328Z" fill="white"/>
<path d="M1186.84 442.735L1174.19 395.132L1199.11 394.973L1186.84 442.735Z" fill="#C50705"/>
<path d="M792.437 64.807L846.104 66.243L843.04 81.6802L792.437 64.807Z" fill="white"/>
<path d="M1180.2 327.69L1248.89 354.253L1230.73 379.122L1180.2 327.69Z" fill="#C50705"/>
<path d="M728.643 226.327C733.898 245.012 732.453 279.443 684.631 267.682" stroke="black" stroke-width="27.4825"/>
<path d="M185.872 661.836C206.367 633.367 341.375 559.957 367.874 598.836C400.997 647.435 462.716 602.802 506.873 583.336C551.031 563.87 536.793 490.746 603.373 557.336C669.953 623.926 745.454 478.781 735.615 457.43C725.777 436.079 783.674 353.472 822.15 396.047C860.626 438.622 961.024 429.907 961.753 364.239C962.482 298.571 979.068 252.299 1062.84 271.494C1146.62 290.69 1196.33 197.501 1143.06 160.179C1089.8 122.857 1090.16 29.5608 1175.9 28.1365C1261.65 26.7123 1299.85 -60.536 1275.09 -83.4938" stroke="black" stroke-width="28.9308"/>
<path d="M729.491 228.508C723.691 199.81 726.137 145.376 782.317 157.226C838.497 169.076 848.985 116.578 847.206 88.8478C849.29 61.1456 870.067 14.0439 936.499 47.2546C1002.93 80.4652 1015.25 19.262 1013.11 -15.491" stroke="black" stroke-width="27.4843"/>
<path d="M1326.07 325.106C1303.95 312.912 1258.43 300.772 1253.27 349.758C1248.1 398.745 1202.04 393.68 1179.66 385.024C1156.27 379.531 1109.99 384.577 1121.64 447.188C1131.58 500.622 1070.07 541.408 1041.99 530.63" stroke="black" stroke-width="27.4201"/>
<path d="M-429.958 279.885C-404.929 254.878 -349.976 215.469 -330.399 257.885C-305.927 310.906 -287.091 386.024 -240.236 373.5C-193.381 360.976 -179.908 310.145 -125.465 386.01C-71.0225 461.874 -2.77732 424.76 -8.87767 402.182C-14.978 379.604 56.0985 306.807 86.8687 354.691C117.639 402.574 218.168 409.2 229.979 344.459C241.79 279.717 265.971 236.537 345.384 268.205C424.797 299.872 489.581 215.383 443.332 170.444C397.082 125.505 413.198 33.4225 498.037 45.0253C582.877 56.6281 635.304 -23.7398 614.752 -50.169" stroke="black" stroke-width="27.8553"/>
<path d="M-10.2576 240.9C-18.3035 212.698 -20.1532 158.255 36.8158 166.094C93.7847 173.933 100.11 120.85 96.1509 93.329C96.0472 65.5627 113.059 17.1325 181.937 45.5418C250.815 73.9512 258.284 12.0601 253.409 -22.4367" stroke="black" stroke-width="27.4843"/>
<path d="M698.21 271.674C675.193 261.082 628.836 252.2 627.544 301.404C626.251 350.609 579.91 348.818 556.902 341.772C533.141 337.952 489.283 345.82 503.93 407.855C518.578 469.891 411.226 487.095 382.373 478.336" stroke="black" stroke-width="27.4843"/>
</g>
<defs>
<clipPath id="clip0_185_129">
<rect width="440.187" height="1289.2" fill="white" transform="translate(1.93965 445.863) rotate(-90.2525)"/>
</clipPath>
</defs>
</svg>
